<?xml version="1.0" encoding="utf-8"?>
<!-- Generator: Adobe Illustrator 21.0.0, SVG Export Plug-In . SVG Version: 6.00 Build 0)  -->
<svg version="1.1" id="Layer_1" xmlns="http://www.w3.org/2000/svg" xmlns:xlink="http://www.w3.org/1999/xlink" x="0px" y="0px"
	 viewBox="0 0 800 495.3" style="enable-background:new 0 0 800 495.3;" xml:space="preserve">
<g>
	<g>
		<path d="M431.9,0.5c0.3,0,0.5,0,0.8,0c1.1,4,2.4,8,3.2,12c3.5,18.3,6.6,36.6,10.2,54.9c1.1,5.7,3.3,11.2,5.5,16.6
			c0.7,1.7,3.2,3.5,5.2,3.8c7.4,1.3,15,1.7,22.4,3c28.8,5.3,57.6,6.2,86.6,2.1c31.8-4.6,62.7-12.9,93.1-23c3.5-1.2,5.3-0.4,7.4,2.4
			c12,16,21.6,33.5,30.1,51.5c44.5,94.8,77.1,193.5,97.8,296.1c4.1,20.4,7,41.1,6.3,62c-0.1,4.2-0.9,8.4-1.3,12.8
			c-4.4-3.2-8.2-6.1-12.2-8.8c-4.1-2.7-8.3-5.4-12.6-7.8c-71-39.7-146.3-68.3-225.7-86c-33.5-7.5-67.4-11.8-101.7-13
			c-21.2-0.7-42.3,2.1-63.6,0.7c-34.4-2.2-68.7,1.2-102.6,7c-46.9,8.1-92.6,21.1-137.1,37.9c-49.2,18.7-97.4,39.4-141.2,69.5
			c-0.6-3.7-1.2-7.7-1.8-11.8c0-4.2,0-8.3,0-12.5c0.7-6.3,1.2-12.6,2-18.9c4.3-36.1,12.6-71.5,22.3-106.5
			c20.3-73.6,44.9-145.7,77.5-214.8c9.3-19.7,19.4-38.9,32.3-56.5c2.6-3.5,4.7-4.6,9.2-3c24.3,8.2,49,15,74.2,19.7
			c26.7,5,53.6,7.6,80.8,4.2c13.8-1.7,27.5-4.8,41.3-5.7c8-0.5,11-4.1,12.8-10.7c0.5-1.9,1.3-3.7,1.6-5.6
			c2.6-13.3,5.1-26.6,7.8-39.8c2.2-10.7,4.7-21.3,7-31.9c0.3,0,0.5,0,0.8,0c1.9,4.7,3.8,9.4,5.5,14.1c1.9,5.2,3.7,10.5,5.6,15.8
			c0.8,2.3,2.4,2.9,4.8,2.8c9.9-0.2,19.7-0.2,29.6,0c2.5,0,4-0.6,4.8-2.9c1.8-4.9,3.4-9.8,5.2-14.7C427.7,10.6,429.8,5.6,431.9,0.5z
			"/>
	</g>
</g>
</svg>
