<svg xmlns="http://www.w3.org/2000/svg" viewBox="0 0 1200 746"><title>Asset 1</title><g id="Layer_2" data-name="Layer 2"><g id="Layer_1-2" data-name="Layer 1"><path d="M1201,658v6c-1.65-.71-3.87-1-4.83-2.2a104.27,104.27,0,0,1-7-10.89c-14-23.79-27.41-48-42.24-71.32-16.44-25.83-35.93-49.16-60.91-67.52-32.26-23.73-67.75-25.53-101.73-4.56-17.52,10.81-31.8,25.21-44.77,41-24.05,29.26-42.39,62.08-59.38,95.74-2.07,4.11-4.21,8.18-6.88,13.35-.74-4.31-1.09-7.41-1.81-10.42-11.35-47.54-39.07-82.42-83-103.36-34.71-16.55-68.34-12.56-99.17,10.83-15.61,11.85-27.53,27-37.66,43.64-19.7,32.34-31.55,67.78-40.56,104.27-3.55,14.39-6.44,28.94-9.86,44.46-.56-2.22-.94-3.45-1.17-4.71-6.29-33.59-14.39-66.69-27-98.55-11.38-28.86-25.45-56.19-47.75-78.34-28.34-28.14-62-39.79-100.41-25.87-49.76,18-80.21,54.77-93.86,105.64-1,3.64-1.39,7.44-2.23,12.09-1.21-2.22-2-3.61-2.75-5.06-16-32.64-33.27-64.54-55.3-93.6-15.59-20.56-32.9-39.41-55.42-52.69-19.87-11.71-41-16.31-63.79-10.73-18.07,4.43-33.25,14.23-47.14,26.2C84.78,538.28,68.59,558.21,54.9,580c-14.26,22.68-27.32,46.1-41,69.17-2.62,4.44-5.4,8.8-8.28,13.07C4.55,663.89,3,665.64,1,663v-5a16.3,16.3,0,0,0,1.09-2.64c4-17.69,7.77-35.43,11.93-53.08,18.59-78.86,36.15-158,56.21-236.46C99.52,251.29,138.78,140.15,189.06,33Q196.57,17,204,1h1a16.16,16.16,0,0,0,1.3,2.56C252.38,65,310.08,112.16,380,144.14c31.18,14.26,63.49,24.95,97.65,29.26,8,1,16.08,1.21,24.36,1.8L504.53,7.8l1.18-.17,29.11,106.18c21.07-11.64,41.31-23.53,66.23-19.63,25-4,45.39,7.88,66.58,19.63L696.76,7.48l1.05.31,2.59,167.55c61.25-2.6,115.59-24.41,166.93-55S961.77,49.73,997.73,1.2c1.29,2.51,2.22,4.24,3.09,6,51.58,105.59,91.61,215.51,123.21,328.6,26.22,93.8,46.66,189,68,284C1194.85,632.54,1198,645.25,1201,658Z" transform="translate(-1 -1)"/></g></g></svg>