<svg xmlns="http://www.w3.org/2000/svg" viewBox="0 0 800 389.1"><title>Asset 1</title><g id="Layer_2" data-name="Layer 2"><g id="Layer_1-2" data-name="Layer 1"><path d="M0,326v-.7c.5-1,1-1.9,1.4-2.9,11.9-30.6,25.1-60.7,39.9-90,23.3-46,50-89.8,82.3-130.1,30.9-38.7,65.8-73.1,106.9-101A17.88,17.88,0,0,0,231.9,0h.7c38.6,26.7,79.2,49.8,124,65.3,0-9-.3-17.8.1-26.5s1.3-17.5,2-26.2h1.1c2.8,6.2,5.7,12.4,8.6,18.7,9.1-8.4,19.6-13.1,31.5-13.1s22.5,4.8,31.6,13.1c2.9-6.4,5.7-12.5,8.9-19.5,3.8,18.3,2.7,35.9,2.8,53.7,1.3-.5,2.4-.8,3.4-1.2,9.2-3.7,18.4-7.2,27.5-11.1C507.2,39,537.8,20.4,567.3,0h.7c1.2.9,2.4,1.9,3.6,2.8C584.8,13,598.4,22.6,611,33.5c46.6,40.4,83.8,88.6,115.7,141.1,28.1,46.2,51.3,94.8,70.8,145.3.7,1.8,1.6,3.6,2.5,5.4v.7c-4.6-1.9-9.3-3.6-13.7-5.8-6.2-3.1-12-6.7-18.2-9.8-12-5.9-24.5-7.7-37.5-4.2A72.85,72.85,0,0,0,705.5,319c-4.3,3.3-8.4,6.8-12.7,10.2l-4.2-2.7c-11-7.1-22.6-12.9-35.3-16.1-25.6-6.6-47.9-1.4-65.2,19.3-4.9,5.9-8.9,12.7-12.8,19.4-3,5.3-5.2,11.2-7.6,16.4-3.8-2.1-7.4-4.5-11.4-6.2-22.8-9.8-46.7-12.4-71.1-9.7-31.7,3.6-59.1,16.7-82.9,37.7-.7.6-1.5,1.2-2.3,1.8-1.1-.9-2-1.7-2.9-2.5-25.7-22.3-55.4-35.6-89.5-37.6-26.5-1.5-52.2,2.2-75.4,16.6-.3-.7-.6-1.5-.9-2.3-5-12.7-11.1-24.7-20.3-35q-22.35-24.9-55.4-19.7c-16.6,2.6-31.3,9.6-45.2,18.7l-2.5,1.6c-8.5-5.9-16.2-12-24.6-16.9-16.7-9.6-34-9.9-51.3-1.5-6.2,3-12,6.7-18.2,9.8C9.2,322.4,4.5,324.1,0,326Z"/></g></g></svg>