<svg xmlns="http://www.w3.org/2000/svg" viewBox="0 0 1024 698.32"><title>Asset 1</title><g id="Layer_2" data-name="Layer 2"><g id="Layer_1-2" data-name="Layer 1"><path d="M1025,320v18c-.28,2-.68,3.9-.81,5.87-2.32,33.59-12,65.07-27.35,94.88-21.84,42.32-52.34,77.83-87,110-8.86,8.22-18.11,16-27.18,24l-.93-.8c1.21-1.69,2.43-3.36,3.62-5.07,1.33-1.92,2.68-3.82,3.91-5.8,20.65-33.31,29.42-69.74,28.06-108.67-.83-23.94-5.83-46.85-18.1-67.85-16.39-28.07-43.31-35.79-71.68-20.19-15.14,8.32-27.22,20.25-38.22,33.33-20.83,24.78-36.84,52.64-51.23,81.47-6.09,12.19-11.74,24.6-18.11,38-.76-4.9-1.27-8.77-2-12.62-4.59-25.55-12.37-49.82-28.93-70.41-18-22.37-40.79-24.67-62.67-6.11A119,119,0,0,0,610.18,445c-19,24-31.72,51.58-43.11,79.74C544.7,580,529,637.33,515,695.16c-.53,2.16-1.1,4.31-1.66,6.47A13.17,13.17,0,0,1,511,696.3c-14.22-58.64-30.08-116.79-52.81-172.82-10.54-26-22.43-51.31-39.1-74.06-8.42-11.5-17.83-22.07-30.66-28.9-13.23-7-26.37-6.75-38.72,1.82a65.66,65.66,0,0,0-13.11,12.18c-14.06,17.13-21.53,37.4-26.46,58.69-1.75,7.55-2.86,15.24-4.45,23.85-1.23-2.62-2.09-4.38-2.89-6.16-15.31-34.11-32.12-67.39-54.15-97.75-13.08-18-27.54-34.78-46.73-46.72-10.52-6.54-21.82-10.93-34.47-10-18.7,1.45-31,12.58-40.35,27.72s-14.28,31.52-16.59,48.85C104.27,479.69,113,523.24,138,563.27c1.89,3,4.11,5.85,6.18,8.77a2.35,2.35,0,0,1-2.11-.53c-33.32-27.7-63.9-58-89-93.54C27.76,442.12,9.55,403.21,3.5,359.27c-1-7.4-1.67-14.84-2.5-22.27V322c1.2-9.89,2-19.86,3.66-29.66C12.55,246.25,33,205.75,61.45,169.26,110.92,105.89,173.48,59,246,25.11,268.13,14.8,290.95,6.37,315.41,3.56c4.13-.47,8.35-.07,12.77-.07-8.91,10.57-17.81,20.49-26,31-17.25,22.07-32,45.55-38.65,73.24-8.42,35,3.65,65.54,34.44,80.9,39.62,19.76,79.12,17.41,116.36-6.77,17.63-11.45,28.73-28.25,31.19-49.6,3.74-32.44,7-64.93,10.48-97.4q1.66-15.5,3.37-31l1.13-.16,18.54,51.69c22.76-9.39,45.2-9.24,67.66,0l18.53-51.7A15.33,15.33,0,0,1,567,10c3.86,39.63,7.88,79.25,11.51,118.9,1.92,20.94,11.53,37.78,28.06,49.81C642.77,205.1,682.35,208.38,723,191c31-13.24,44.82-39.58,41.08-73-1.59-14.25-6.42-27.53-12.71-40.3C738.5,51.51,720.55,29,701,7.74c-1.15-1.25-2.22-2.57-3.71-4.3,4.91,0,8.91-.34,12.83.06,17,1.74,33.26,6.81,49.15,12.93,42.45,16.36,81.2,39.36,117.35,66.74,39.58,30,74.66,64.42,102.26,106,20.11,30.28,35,62.83,41.72,98.75C1022.55,298.51,1023.55,309.3,1025,320Z" transform="translate(-1 -3.3)"/></g></g></svg>