<svg xmlns="http://www.w3.org/2000/svg" viewBox="0 0 1200 786.64"><title>Asset 1</title><g id="Layer_2" data-name="Layer 2"><g id="Layer_1-2" data-name="Layer 1"><path d="M753,1h12a35.65,35.65,0,0,0,4.34.79,380.67,380.67,0,0,1,65.6,9.9c50.82,12.14,98.23,32.52,142.46,60.15C1058,122.21,1123,187.48,1165.75,273.27c16.6,33.3,27.92,68.39,32.35,105.48,1.24,10.39,2,20.84,2.9,31.26v12q-.92,9.89-1.85,19.79c-4.86,51.06-23.86,96.62-53.85,137.84-29.6,40.67-66.92,73.13-108.53,100.88C982.55,716.67,923.6,743.17,862.39,765c-8.1,2.88-16.27,5.55-24.41,8.31,5.17-5.93,10.86-11,16.11-16.41a990.62,990.62,0,0,0,109-134c11.64-17.27,22.35-35.08,30.3-54.47a63,63,0,0,0,4.28-33.28c-2.34-16.35-13.45-25.93-27.68-32.2-20-8.82-40.63-7.68-61.21-2.34-30.41,7.9-56.54,24-81,43.16-33.81,26.46-62.48,58-89.12,91.43-1.92,2.41-4,4.68-6,7a7.33,7.33,0,0,1,.6-4.54,134.23,134.23,0,0,0,11.31-43.79c1.3-17.09-.65-33.67-9.21-48.86-12.84-22.79-35.46-27.92-55.92-11.69a112.73,112.73,0,0,0-22.37,24.58c-16.45,24.07-25.56,51.46-33,79.38-11.63,43.59-17.51,88.12-21.13,133q-.7,8.69-1.42,17.37c-1.76-10-2.54-19.87-3.44-29.77-3.73-41-9.56-81.7-20.29-121.53-7.42-27.58-16.8-54.42-32.6-78.53-8-12.24-17.42-23.23-30.9-29.85-15-7.36-30-4.43-41.33,7.87a56.87,56.87,0,0,0-12.83,24c-7,25.86-3.09,50.81,6.64,75.23.82,2,1.57,4.12,2.36,6.17a12.67,12.67,0,0,1-3.79-3.55C438.22,603.32,409,571,374.39,543.87c-24.42-19.15-50.54-35.29-80.94-43.23-20.57-5.37-41.25-6.72-61.19,2.25-25.44,11.44-31.66,28.28-27.21,52.89,2.91,16.09,11.22,30.2,19.48,44.1,24.77,41.69,54.59,79.7,86.28,116.22,17,19.58,35.06,38.23,51.95,56.55.51.11-.44,0-1.34-.31-69.34-22.94-136-51.67-197-92.41-46.42-31-87.28-67.89-117.88-115.14-22.69-35-37.44-73.07-42.74-114.57C2.56,440.19,1.93,430.07,1,420v-6c.24-2.46.63-4.91.69-7.37A292,292,0,0,1,12.52,335.7C27.66,281,54.86,232.7,90.51,189c52-63.79,115.71-112.8,190.43-147.34C322.44,22.49,365.74,9.23,411.28,3.83c8.56-1,17.14-1.89,25.72-2.83h12c-3,1.7-6,3.48-9.12,5.08-29.61,15.4-58.24,32.35-84.17,53.5-19.22,15.68-36.67,33-48.6,55.12-13.38,24.77-16.14,50.14-3.05,76,7.93,15.68,20,27.79,34.1,37.89,26.45,18.92,56.16,29.47,88.32,33.09,24.38,2.74,48.33,1.18,70.5-10.66,17-9.09,28-22.88,30.36-42.48,1.59-13.06,2.7-26.17,4-39.26Q537.18,112.14,543,55q2.62-25.74,5.23-51.48a10.69,10.69,0,0,1,2.71,4.67c5.86,17,11.79,33.95,17.48,51,1,3.14,2.56,3.85,5.73,3.82q26.95-.28,53.9,0c3.27,0,4.63-.91,5.65-3.94,5.7-17,11.61-34,17.46-51,.56-1.64,1.29-3.22,2.47-6.13,1.17,11.07,2.23,20.63,3.2,30.2q8.71,86.49,17.34,173c1.92,19.56,11.39,34.17,27.89,44.25C714.47,257,728.3,260.54,742.72,262c22.7,2.29,44.88-.65,66.62-7.1,27-8,51.71-20.56,71.64-40.94,22.29-22.79,31.24-49.58,21.77-80.95-5.7-18.89-16.9-34.6-30.14-48.92-22-23.85-48.25-42.39-76-58.82C782.3,16.79,767.55,9.07,753,1Z" transform="translate(-1 -1)"/></g></g></svg>