<svg xmlns="http://www.w3.org/2000/svg" viewBox="0 0 1199.46 1152.93"><title>Asset 1</title><g id="Layer_2" data-name="Layer 2"><g id="Layer_1-2" data-name="Layer 1"><path d="M1201,608c-.32,5.29-.73,10.58-1,15.88-3.67,85.36-26.88,164.9-71,238.16-41.33,68.57-96.29,124.37-160.9,171-72.84,52.59-153.11,90.62-237.51,120.46a2.38,2.38,0,0,1-2.23-.32l5.63-3.39c55.1-33,106.53-70.86,151.25-117.26,35.63-37,65.81-77.78,86.86-124.91,18.91-42.34,29.11-86.47,25.66-133-3-40.74-15.79-78-43.89-108.6-25.19-27.48-56.5-41.93-94.07-40.75-28.45.89-53.89,11.35-77.09,27.34-35.57,24.52-61.77,57.51-83.63,94.21-30.57,51.32-51,106.85-66.94,164.12-13.09,46.88-22.47,94.55-29.92,142.62-.32,2.08-.39,4.19-.68,7.31-3.3-19.19-6.15-37.4-9.58-55.5-14.09-74.48-33.56-147.35-66.1-216.18-17.89-37.83-39.4-73.37-68.37-103.93-22.76-24-48.59-43.61-80.54-53.84-58.37-18.69-112.65,5.79-144,54.54-20.26,31.45-28.65,66.34-29,103.42-.47,47.89,12.56,92.44,34.13,134.7,28.92,56.66,70,103.53,117.69,145,35,30.51,73,56.93,112.83,80.78a21.06,21.06,0,0,1,5.27,4c-1.11-.29-2.25-.51-3.34-.9-72.78-25.73-142.5-57.81-207.32-100-56.23-36.64-106.7-79.83-148.92-132.2C60.77,854.46,25.46,779.62,10,695.63A530.89,530.89,0,0,1,3.64,553.28c8.6-99.12,40.19-190.8,90.08-276.41C136.61,203.26,190.5,139,258.17,86.76c42.67-32.91,89.08-59,141.2-74a284,284,0,0,1,61.81-11A26.47,26.47,0,0,0,465,1h9c-1.83,1.43-3.62,2.93-5.5,4.29-51.07,37-100.53,75.92-146.62,119S233.1,213.25,200.64,267.76c-19.59,32.91-34.48,67.59-38,106.29-2.17,23.64.61,46.59,9.77,68.54,14.33,34.34,39.38,59.24,71.26,77.11,61.66,34.57,127.75,44.39,197.06,31.92,28.39-5.11,54.89-15.39,76.33-35.66,13.4-12.67,23.09-27.7,24.58-46.65,2-25.74,3.6-51.52,5.37-77.29q2.11-30.57,4.24-61.13l.81-.09L575.16,465.6h52.13l23-134.07a11.35,11.35,0,0,1,1.39,5q3.7,53.35,7.37,106.71c.79,11.28.7,22.79,3,33.77,4,18.8,15.38,33.36,30.34,45.1,22.5,17.67,48.76,26.28,76.5,30.95,40.34,6.78,80.39,4.42,119.95-5.44,40.52-10.1,77.72-27,107.92-56.7,35.88-35.32,48.87-78.34,41.52-127.76-5.11-34.32-18.93-65.4-36.44-95-26.07-44.06-59.22-82.48-95.24-118.55C853.24,96.15,794.43,49.18,733.37,4.91A55.2,55.2,0,0,1,729,1h8a35.72,35.72,0,0,0,4.36.8c27.44,1.67,54,7.73,79.85,16.77,51.4,18,97.14,45.92,138.61,80.76,92.46,77.7,158,174.45,200.56,287a612,612,0,0,1,38.82,176.31q.88,13.16,1.8,26.31Z" transform="translate(-1.54 -1)"/></g></g></svg>