<svg xmlns="http://www.w3.org/2000/svg" viewBox="0 0 1200 726.1"><title>Asset 1</title><g id="Layer_2" data-name="Layer 2"><g id="Layer_1-2" data-name="Layer 1"><path d="M1,383V370a23.22,23.22,0,0,0,1-2.67c6.21-24.16,11.43-48.62,18.79-72.42C36,245.7,59.41,200,84,155c25.41-46.43,52.23-92.13,73.33-140.81a20.44,20.44,0,0,1,1.48-2.25,27.31,27.31,0,0,1,0,3.23C152.42,56.78,146,98.42,139.44,140c-.61,3.82.33,5.34,3.86,6.37,8.3,2.41,16.44,5.4,24.79,7.67,44,11.93,88.72,19.57,134,24.31,43.52,4.56,87.06,6.56,130.61.53,19.88-2.76,39.34-7.23,56.83-17.65A10.77,10.77,0,0,0,494,154.9c8.82-42.87,17.4-85.8,26.05-128.71,1.56-7.76,3.2-15.5,4.8-23.24l.85.08L555,104.72,601.26,75l46.21,29.63,29.6-103c.62,2.06.8,2.52.9,3Q693,79.84,708.22,155a9.83,9.83,0,0,0,4.27,6,134.37,134.37,0,0,0,19.44,9c30.81,10.73,62.93,12.56,95.14,12.5,52.13-.1,103.67-6.45,154.78-16.43,26.15-5.1,52.11-10.94,77.3-19.83,3-1.05,4.25-2.21,3.71-5.64q-8.39-53-16.52-106.1c-1.13-7.34-2.18-14.69-3.26-22C1050.6,27,1057,41.77,1064.6,56c21.27,40,43.11,79.65,64.53,119.55,26.85,50,49.64,101.7,63.24,157.06,3.13,12.74,5.77,25.6,8.63,38.4v11a16.72,16.72,0,0,0-.77,2.86c-2.76,31.14-11.72,60.71-22.84,89.7-19.83,51.67-46.25,100-75.9,146.55-21.93,34.45-45,68.09-72.6,98.41-1.24,1.36-2.68,2.54-4,3.81l-1.42-.85c2-5.93,3.77-11.92,5.91-17.79,11-30.17,22.35-60.2,33-90.5,4.34-12.38,7.44-25.25,6.8-38.65-.27-5.82-2.43-10.11-8.43-12.16-34.6-11.88-69.92-18.13-106.57-13.47-49.87,6.34-82.85,33.5-99,81.07-1.49,4.38-2.74,8.83-4.36,14.06-1.16-2.76-2-4.7-2.81-6.64-10.16-23.58-24.79-43.71-46-58.61-21.59-15.2-45.44-22-71.81-17.7-24.47,4-44.35,16.63-61.49,33.95-22.42,22.64-37.45,50-49.5,79.11-3.5,8.45-6.62,17.07-9.58,25.72s-5.49,17.42-8.46,26.92c-.86-2.83-1.51-4.87-2.1-6.93-7.82-26.93-17.55-53.1-31.15-77.69-14.27-25.8-31.5-49.23-56.81-65.3-36.13-22.94-72.58-22.63-108.41.7-22.77,14.82-38,36-48.61,60.75l-2.58,6c-1.32-4.42-2.31-7.94-3.43-11.41-14.45-45.13-44-73.77-91.24-82.33-40.09-7.26-78.89-.74-116.83,12.7-5,1.76-6.84,6-6.81,10.64,0,6.29-.16,12.88,1.57,18.81,6.53,22.33,13.38,44.59,20.92,66.6,6.41,18.72,14,37,20.92,55.59a51.18,51.18,0,0,1,1.61,7.25l-1.49.68c-5.21-6-10.63-11.76-15.6-17.92C116.64,650.92,79.26,591.35,47.94,528,30.2,492.08,15.14,455.12,6.55,415.85,4.18,405,2.82,394,1,383Z" transform="translate(-1 -1.7)"/></g></g></svg>