<svg xmlns="http://www.w3.org/2000/svg" viewBox="0 0 1200 518.19"><title>Asset 1</title><g id="Layer_2" data-name="Layer 2"><g id="Layer_1-2" data-name="Layer 1"><path d="M1,305q0-9.5,0-19a16.18,16.18,0,0,0,.8-2.86C3.6,263.6,10,245.48,19.19,228.31c18-33.48,43.87-60.15,72.85-84.06,29.66-24.48,61.91-45.08,96-62.73,35.26-18.25,71.53-34.07,110.43-43,7.47-1.71,15.15-2.46,23.67-3.79-1.15,2.89-1.72,4.42-2.37,5.92a179.29,179.29,0,0,0-13.18,45.91C301,126.13,318.13,160.15,354,177.8c34.12,16.77,69.89,17.9,106.2,8.47,23.36-6.07,44.18-16.84,59.86-35.83,8.9-10.77,14.15-22.56,14-37.32-.37-35.31.58-70.64,1-106,0-1.37.2-2.74.42-5.55l37,65c18.24-6.32,36.2-6.82,54.17-.72,3.1,1.05,3.66-1.26,4.69-3.07L662.72,7.68c.87-1.54,1.78-3.05,2.67-4.58a13.08,13.08,0,0,1,1.23,6c.47,37.32.86,74.64,1.47,112a30.27,30.27,0,0,0,2.31,11.05A78.81,78.81,0,0,0,704,170c45,26.21,92,29.52,140,9.52,25.59-10.68,43.16-29.78,49.76-57.46,4.64-19.48,2.47-38.78-3.2-57.7-2.9-9.66-6.65-19.07-10.16-29a38.27,38.27,0,0,1,5,.33c11.41,2.26,23,3.79,34.16,7,48.58,14.22,93.7,36.18,136.51,62.94,35.47,22.17,68.42,47.5,96.17,79.06,19.1,21.71,34.88,45.48,43,73.55,2.54,8.73,3.88,17.81,5.77,26.73v21a17.78,17.78,0,0,0-.79,2.85c-2.22,20.41-9.4,39.06-20.07,56.46-18,29.35-42.76,52.21-70.18,72.39C1068.27,468.39,1022.34,491.46,975,512c-6.25,2.71-12.58,5.23-18.88,7.83a8.68,8.68,0,0,1,2.6-3.36c16.06-14.36,30.12-30.25,37.77-50.82,12.41-33.34-1.53-65.09-34.41-78.69-16-6.61-32.57-8-49.53-5.42-27.39,4.21-50.52,17.12-71,35.24-3,2.61-5.86,5.3-8.9,8-4.86-3.65-9.31-7.15-13.93-10.42-8.83-6.26-17.45-12.87-26.68-18.46-22.33-13.54-45.52-14.39-69.21-3.4-15,6.94-28.09,16.56-40.34,27.44-27.33,24.27-49.92,52.68-71.5,82-3.34,4.53-6.62,9.11-10.18,14-1.32-1.81-2.37-3.24-3.4-4.68-17.92-25.11-36.71-49.54-58.07-71.86-17-17.76-35.09-34.19-57.3-45.41-25.06-12.65-49.73-12.21-73.67,2.67-8.75,5.44-17,11.75-25.37,17.74-4.71,3.36-9.3,6.89-13.5,10-8.58-6.94-16.23-13.94-24.68-19.8-26.63-18.5-55.68-28.37-88.55-22.6-47.69,8.38-68.77,51.5-46.19,94.32,7.4,14,17.54,25.87,29.11,36.58l5.85,5.43a7.7,7.7,0,0,1-4.72-.7c-26.83-12.54-54.07-24.3-80.38-37.86-38-19.6-73.74-42.86-104.49-73-21.66-21.24-39.63-45.06-48.59-74.54C4.2,323.37,2.92,314.09,1,305Z" transform="translate(-1 -1.61)"/></g></g></svg>