<svg xmlns="http://www.w3.org/2000/svg" viewBox="0 0 1200 467.43"><defs><style>.cls-1{fill:#262626;}</style></defs><title>batAsset 1</title><g id="Layer_2" data-name="Layer 2"><g id="Layer_1-2" data-name="Layer 1"><path class="cls-1" d="M259,469h-3c-2.77-.84-5.49-1.88-8.31-2.48-31.49-6.79-61.09-18.7-89.48-33.65-46.13-24.28-87.78-54.34-120.42-95.62-16.64-21-29-44.22-34.25-70.82C2.79,262.6,1.85,258.81,1,255V233a33.58,33.58,0,0,0,1.72-5.46,121.48,121.48,0,0,1,14-41.35C31.7,158.7,53.49,137.4,78.08,118.7c34.81-26.47,73.45-46.16,113.39-63.51a11.84,11.84,0,0,1,2.46-.45c-.3,12.25,5.12,22.15,11.35,31.7.76,1.16,2.46,1.7,3.72,2.53.49,1.66.58,3.62,1.54,4.93a124.12,124.12,0,0,0,9.16,11.2c31.4,33.58,69.55,56.7,112.68,71.78,39.86,13.94,80.93,18.65,123,15.23a328.61,328.61,0,0,0,97.26-23.31,10.49,10.49,0,0,0,5.22-5.42c2.74-7.14,5-14.49,7.2-21.81,3.68-12,7.07-24.41,17.53-32.42,6.4-4.9,8.83-11.29,10.92-18.35,1.7-5.75,3.57-11.45,5.44-17.15a46,46,0,0,1,2-4.42,26.68,26.68,0,0,1,1.54,3c2.73,8.4,5.3,16.85,8.2,25.19,1,2.74,2.11,6,4.25,7.61,10.88,8.07,16.7,19.17,20.49,31.73,2.64,8.77,5.2,17.59,8.49,26.11a13,13,0,0,0,6.66,6.6c33,13.14,67.36,21.32,102.87,23.32,38.08,2.14,75.49-2.3,111.83-14.43,37.11-12.39,70.83-30.88,100.2-56.77,10.7-9.44,21.21-19.32,28.6-31.86,8.13-10.23,13.91-21.41,14.1-35.28,1.57.57,3,1,4.27,1.58,20.46,10,41.28,19.34,61.25,30.23,32.87,17.92,63.41,39.18,88.5,67.42,17.62,19.83,30.91,42,36.19,68.41.73,3.65,1.68,7.26,2.53,10.9v24c-1.16,4.75-2.37,9.48-3.49,14.24-7.31,31.05-24,56.85-45.08,80.14-30.07,33.3-66.07,58.89-105.46,79.88-29.35,15.64-59.94,28.22-92.61,35.25-3.16.68-6.25,1.65-9.37,2.48h-3c1.22-1.07,2.27-2.49,3.68-3.17,34.79-16.92,68.82-35.15,99.91-58.38,17.82-13.31,34.43-27.93,46.84-46.69,8.86-13.39,14.16-27.81,12.63-44.24-1.23-13.19-8.75-23.79-14-35.35-2-3.81-3.68-7.85-6.08-11.39-11.31-16.71-26.93-28.49-44.65-37.52-31.46-16-65.4-22.46-100.28-24.12a385.36,385.36,0,0,0-78.67,4.25,417,417,0,0,0-142.65,49.77c-37.4,21.34-70,48.46-97.21,81.92a12.48,12.48,0,0,0-2.42,5.34q-4.45,23.31-8.58,46.68c-.33,1.87.16,3.88.26,5.83-.85,2.12-2,4.17-2.48,6.37-1.61,8-2.94,16-4.42,24-.78,4.23-1.65,8.44-2.48,12.67-1.86-4.71-2.56-9.29-3.49-13.82-1.93-9.39-4-18.76-6-28.14a19.94,19.94,0,0,0,.06-3.9c-3-16.88-6-33.77-9.2-50.62a11.4,11.4,0,0,0-2.54-4.72,332,332,0,0,0-41.4-42.44c-39.52-33.87-84.6-57.74-133.92-73.68a396.39,396.39,0,0,0-97.33-18.8c-29.35-1.84-58.54-1.4-87.5,4.22S163.77,227.86,140,246c-12.47,9.52-23,20.72-29.26,35.38-3.14,6.38-7,12.51-9.23,19.2-2.39,7.31-4.29,15.11-4.5,22.75-.49,17.73,8.08,32.29,18.59,45.74,13.35,17.08,29.9,30.72,47.44,43.23,28.81,20.54,59.86,37.21,91.57,52.73C256.33,465.84,257.56,467.65,259,469Z" transform="translate(-1 -1.57)"/><path d="M901,43.85c22,10,44.21,19.74,66,30.18,9.39,4.49,18.09,10.43,27.1,15.72-7.39,12.54-17.9,22.42-28.6,31.86-29.37,25.9-63.09,44.39-100.2,56.77C829,190.5,791.61,194.95,753.52,192.8c-35.51-2-69.82-10.17-102.87-23.32a13,13,0,0,1-6.66-6.6c-3.29-8.53-5.85-17.35-8.49-26.11C631.72,124.21,625.9,113.12,615,105c-2.14-1.59-3.3-4.88-4.25-7.61-2.9-8.34-5.47-16.79-8.2-25.19a26.68,26.68,0,0,0-1.54-3,46,46,0,0,0-2,4.42c-1.87,5.7-3.74,11.4-5.44,17.15-2.09,7.05-4.52,13.45-10.92,18.35-10.46,8-13.85,20.41-17.53,32.42-2.24,7.32-4.46,14.67-7.2,21.81a10.49,10.49,0,0,1-5.22,5.42,328.61,328.61,0,0,1-97.26,23.31c-42.1,3.42-83.17-1.29-123-15.23-43.13-15.09-81.28-38.2-112.68-71.78a124.12,124.12,0,0,1-9.16-11.2c-1-1.31-1.05-3.27-1.54-4.93,21.6-13.91,44.53-25.27,68.11-35.36,27.91-11.93,56.47-21.85,86.47-27,8.11-1.4,16.39-1.8,24.6-2.67l.62,1.46c-1.18,1.22-2.34,2.46-3.53,3.67-10.11,10.26-19.18,21.29-25.14,34.54-10.42,23.17-5.19,44.4,14.83,60,14.52,11.33,31.39,17.27,49.23,20.68,24.9,4.76,49.66,4.7,74-3.37,10.56-3.5,20.18-8.72,27.73-17.13,5.11-5.69,8.44-11.93,8.51-20.09.15-16.47,1.11-32.93,1.74-49.4.6-11.12,1.31-22.23,1.76-33.36.24-6,0-11.93,0-17.9l1.74-.45c.88,1.22,1.79,2.42,2.63,3.66,9.17,13.48,18.41,26.92,27.43,40.5,1.84,2.76,3.51,3.65,6.88,2.89a109.82,109.82,0,0,1,48.8,0c3.39.77,5-.18,6.87-2.93,8.92-13.45,18.06-26.75,27.13-40.1.91-1.33,1.89-2.61,3.68-5.07.32,5.84.58,10.38.81,14.93q1,19.42,1.91,38.85c.54,15.8,1.45,31.59,1.5,47.39a29.27,29.27,0,0,0,12,24.09c6.75,5.21,14.26,10,22.18,13,24.8,9.5,50.49,9.31,76.23,4.41,18.85-3.58,36.61-10,51.53-22.57,8.47-7.16,14.81-15.85,16.84-27,3.63-19.9-4.9-35.94-16.7-50.84-4.54-5.25-9.12-10.46-13.6-15.76a28.36,28.36,0,0,1-2.38-3.93l5.35-.06L829,24.9l8.85,1.16Z" transform="translate(-1 -1.57)"/><path d="M592,403c-20.87-22.88-41.81-45.75-66.92-64.12a143.31,143.31,0,0,0-26.77-15.27c-12.3-5.41-24.51-3.63-35.43,4.47-5.48,4.06-10.5,8.76-16.05,12.71s-11.45,7.34-17.26,10.89c-3.17,1.93-5.4,1.09-8-1.83-21.51-24.33-48.63-36.66-81.12-36.54a86.13,86.13,0,0,0-43.87,11.76c-24.22,14.18-30.94,39-16.1,62.8,5,7.95,12,14.62,18.15,21.79,1,1.2,2.61,1.93,3.94,2.87l-.87,1.31a11.81,11.81,0,0,1-3-.4c-48.37-19.8-95.28-42.29-136.73-74.71-20.48-16-38.64-34.23-51.22-57.37,6.28-14.66,16.79-25.86,29.26-35.38,23.75-18.14,51.21-27.32,80.12-32.93s58.16-6.07,87.5-4.22A396.39,396.39,0,0,1,405,227.64c49.32,15.94,94.4,39.81,133.92,73.68a332,332,0,0,1,41.4,42.44,11.4,11.4,0,0,1,2.54,4.72c3.17,16.85,6.2,33.73,9.2,50.62A19.94,19.94,0,0,1,592,403Z" transform="translate(-1 -1.57)"/><path d="M1091.09,281.18c-12.79,23.4-31.2,41.79-51.94,58-34.59,27.11-73.32,47-113.33,64.69-7.76,3.42-15.62,6.64-23.46,9.89a37.92,37.92,0,0,1-4.11,1.25c6.31-6.87,13.31-13.37,19-20.87C938.43,366,931,335.77,898.6,321.78c-37.57-16.25-72.58-9.4-104.6,15-5.26,4-9.8,9-14.31,13.89-2.08,2.25-3.91,3-6.41,1.41-6.76-4.2-13.6-8.28-20.13-12.81-5.19-3.6-9.81-8-14.94-11.7-10.21-7.36-21.71-9.23-33.15-4.35a147,147,0,0,0-27.76,15.47c-22,15.78-40.53,35.54-59,55.28q-3.75,4-7.51,8c-.11-1.95-.59-4-.26-5.83q4.13-23.37,8.58-46.68a12.48,12.48,0,0,1,2.42-5.34c27.2-33.46,59.8-60.58,97.21-81.92A417,417,0,0,1,861.41,212.4a385.36,385.36,0,0,1,78.67-4.25c34.88,1.65,68.82,8.08,100.28,24.12,17.72,9,33.34,20.81,44.65,37.52C1087.41,273.33,1089.08,277.37,1091.09,281.18Z" transform="translate(-1 -1.57)"/></g></g></svg>