<svg xmlns="http://www.w3.org/2000/svg" viewBox="0 0 1198 682.95"><title>Asset 1</title><g id="Layer_2" data-name="Layer 2"><g id="Layer_1-2" data-name="Layer 1"><path d="M1200,1a41.32,41.32,0,0,1-3.38,4.86q-36.33,39.26-72.72,78.45c-35.73,38.69-67.81,80-92.82,126.61-27.17,50.59-45,104.41-56,160.61-1.47,7.51-1.39,7.47-10.06,8.68a384.35,384.35,0,0,0-143.3,50c-60.27,35.5-108.87,83.63-150.38,139.37-24.94,33.48-46.22,69.22-65.66,106.1-1.3,2.47-2.73,4.88-4.61,8.21-1.65-2.92-3-5.13-4.17-7.39-21-39.83-44.13-78.34-71.58-114.15-40.42-52.75-87.39-98.31-145-132.15-45.49-26.73-94.32-44-146.81-50.21-5.81-.69-5.71-4.26-6.45-8.07-10-51.57-25.85-101.19-49.41-148.25-25-49.87-57.94-94.07-95.52-135C56.65,61,30.9,33.51,5.33,5.88A38.73,38.73,0,0,1,2,1H3A40,40,0,0,0,7.3,3.12Q170.51,61.12,333.76,119a13.56,13.56,0,0,1,8.4,7.56c27.78,57,56.34,113.67,90.5,167.26,13.09,20.53,26.61,40.85,44.43,57.64a95.62,95.62,0,0,0,22.4,15.42c8.14,4.1,16.33,1.32,21.6-6.16a58.37,58.37,0,0,0,7.65-15c7.59-22.89,8.92-46.72,9.2-70.55.34-29.49-.08-59-.14-88.47,0-1.8.25-3.6.38-5.39a28.72,28.72,0,0,1,3.89,8c11,30.81,28,57.35,54.88,76.85,3.07,2.22,5,2.29,8.12,0,26.9-19.5,43.91-46,54.91-76.82,1-2.73,2-5.43,3-8.15l1.34.21c0,7.9.06,15.81,0,23.71-.33,37.14-2.32,74.36,2.8,111.31A159.74,159.74,0,0,0,676,352.05c6.87,17.7,19.75,21.1,35.49,10.59a99,99,0,0,0,14.58-12.08c17.26-17.12,30.89-37.09,43.85-57.5,34-53.51,62.52-110,90.16-166.88a12.51,12.51,0,0,1,7.68-7Q1028.67,62.18,1189.51,5c3.23-1.15,6.33-2.64,9.49-4Z" transform="translate(-2 -1)"/></g></g></svg>