<svg xmlns="http://www.w3.org/2000/svg" viewBox="0 0 1199.25 456.06"><title>Asset 1</title><g id="Layer_2" data-name="Layer 2"><g id="Layer_1-2" data-name="Layer 1"><path d="M601,459c-5.8-6.85-11.81-13.54-17.36-20.59C559.74,408,536.28,377.34,512,347.26a206.38,206.38,0,0,0-39.1-37c-8.38-6.12-16.4-7.67-26.83-4.54-32.66,9.81-63.51,23.88-94.5,37.76-12.13,5.43-24.36,10.64-36.8,16.07-1.37-2.24-2.52-4-3.58-5.87-24.47-42.51-53.93-80.89-92.22-112.06-2.89-2.35-5.27-3.06-8.93-2.1Q108.66,266,7.17,292.26a10.56,10.56,0,0,1-5.26.27c2.49-2.83,4.73-5.93,7.5-8.44,25.54-23.16,50.85-46.6,76.85-69.24C139.27,168.66,192.71,123,245.88,77c8.43-7.3,16.3-15.23,24.29-22.74,25.41,23.27,56.92,35.35,88,48,41.37,16.84,83.71,30.89,127.72,39.1,12,2.25,24.45,2.51,36.69,3.68,4,.38,5.68-1.35,6.63-5.41C539.61,95,550.27,50.51,560.87,6a3.57,3.57,0,0,1,1.69-2.4L581.77,86h38.91L640,2.94h.83q5.05,21.27,10.1,42.54c7.42,31.42,14.9,62.82,22.12,94.29,1,4.28,3.34,5,7,5.14,16.3.46,32.22-2.31,48-6C788.88,124.66,847.53,104.26,902.9,75c10.46-5.53,20.58-11.7,28.51-21.12a9.94,9.94,0,0,1,1.59,1c47,45.45,97.74,86.63,147.15,129.34,36.68,31.7,72.84,64,109.13,96.13,3.94,3.49,7.22,7.73,11.88,12.77-2.71-.44-3.88-.54-5-.83q-101.71-26.39-203.4-52.9c-4-1-6.57-.47-9.78,2.15-38.13,31.09-67.46,69.36-91.89,111.7-1.07,1.85-2.2,3.67-3.58,6-13-5.69-25.83-11.17-38.55-16.89-30.36-13.64-60.68-27.26-92.68-36.95-10.66-3.23-18.78-1.52-27.25,4.72-19.37,14.27-35.6,31.73-50.42,50.39-22.48,28.3-44.16,57.24-66.23,85.86C609,450.7,605.46,454.8,602,459Z" transform="translate(-1.91 -2.94)"/></g></g></svg>