<svg xmlns="http://www.w3.org/2000/svg" viewBox="0 0 1200 644"><title>Asset 1</title><g id="Layer_2" data-name="Layer 2"><g id="Layer_1-2" data-name="Layer 1"><path d="M1201,636v9c-1.71-.87-3.65-1.46-5.08-2.66-9.43-7.95-18.67-16.11-28.11-24-28.28-23.81-58.08-45.27-92.88-58.75-43.62-16.9-86.28-16.7-127,8.53-10.42,6.46-19.89,14.43-30.1,21.92.51.21.31.19.21.08-3.88-3.88-7.68-7.85-11.64-11.66-58.05-55.79-124.58-69.9-199.48-39.46-41.5,16.86-77.12,42.35-106,76.87-4-4.6-7.89-9.57-12.3-14-28.66-28.91-61.87-51-99.95-65.48-28.43-10.81-57.79-15.47-88.24-11.64-34.45,4.34-64.26,19-90.61,41-9.17,7.67-17.64,16.17-26.7,24.54l-3.85-3.47c-37-33.12-79.37-46.41-128.41-34.73-29.61,7.05-56.31,20.69-80.54,38.63-21.66,16-42.07,33.76-63.09,50.66A46.7,46.7,0,0,1,1,645q0-5,0-10c.19-2,.54-3.93.55-5.9A798.42,798.42,0,0,1,8.9,526,827.56,827.56,0,0,1,43.71,377c26-78.32,62.32-151.78,106.44-221.3,31.13-49.06,63.92-97.07,96-145.54.25-.38.76-.58,1.27-1,1.65,1.17,3.28,2.31,4.89,3.47,44.62,32.05,91.42,60.27,142.13,81.79A442.4,442.4,0,0,0,531,128.4L560.27,2.06l1.85-.27C563.75,7,565.5,12.25,567,17.54c2.14,7.68,4,15.45,6.15,23.12.91,3.23,3,4.74,6.37,2.84,14.27-8,28.56-8.12,42.86-.09,3.66,2.05,5.64.46,6.7-3,1.41-4.61,2.6-9.28,4-13.89C635.66,18,638.35,9.51,641,1h1a19,19,0,0,0,.22,2.94q13.64,59.34,27.34,118.67c.5,2.18,1.17,4.31,1.7,6.27,4.2-.67,7.79-1.44,11.42-1.8a419.16,419.16,0,0,0,110.26-26.75C849.38,78.47,900.87,47.78,949.86,12.6c1.7-1.22,3.42-2.39,5-3.46,18.41,27.24,36.48,54,54.58,80.75,40.18,59.34,77.61,120.29,108.13,185.28,50.37,107.26,79.73,219.63,82.72,338.45C1200.43,621.08,1200.75,628.54,1201,636Z" transform="translate(-1 -1)"/></g></g></svg>