<svg xmlns="http://www.w3.org/2000/svg" viewBox="0 0 1194.28 423.23"><title>Asset 1</title><g id="Layer_2" data-name="Layer 2"><g id="Layer_1-2" data-name="Layer 1"><path d="M1085,1a56.93,56.93,0,0,0,5.89.61q51,.12,102,.16a10,10,0,0,1,5.36,1.07c-3.86,1.74-7.74,3.46-11.59,5.23-39.23,18-76.67,38.84-108.88,68-17.81,16.13-33,34.38-43.51,56.15-18,37.27-17,74.94-1.92,112.81.85,2.14,1.73,4.28,2.87,7.1-7.52-1.52-14.45-3.07-21.43-4.32Q867.46,221.68,732.51,284c-36,16.64-68.57,38.42-95.18,68.27-16.4,18.39-29.09,38.91-34.56,63.3-.65,2.89-1,5.84-1.49,8.69-1.61-6.39-2.82-13-4.93-19.32-9.73-29.18-28.44-52.13-51.13-72.08C508.6,300.64,465.91,279.31,420,264A471,471,0,0,0,264.2,240.12a434.29,434.29,0,0,0-93.55,11.35c-1,.22-1.93.34-3.54.62.4-1.28.59-2.13.92-2.92,25.38-60,13.35-112.93-30.25-159.75-26.34-28.29-58.33-49-92.36-66.63-12.25-6.36-24.89-12-37.34-18A9.9,9.9,0,0,1,4,1.76H9.12q51-.06,102-.16A56.89,56.89,0,0,0,117,1H405c5,19,9.29,38.13,17.78,56s21,30.64,40.58,35.57c3.71.93,7.36,2.28,11.13,2.77,25.25,3.25,50.52,6.33,75.8,9.41.85.1,2.32-.21,2.59-.77,3.13-6.52,7.73-12.87,8.79-19.76,3.22-20.84,5.06-41.9,7.44-62.87l.86-.12,10.29,41.56c7.26-1.66,14-4.43,20.84-4.43s13.54,2.78,20.73,4.45l10.3-41.66c2.51,15,4.19,29.88,5.9,44.75,1.44,12.49,1.4,25.32,9.71,36.05,1.65,2.13,2.8,3.15,5.55,2.71,5.09-.81,10.26-1.09,15.38-1.75,20.3-2.61,40.65-4.85,60.86-8C754.22,91,771.9,77.28,780.6,53.79,787,36.54,791.6,18.62,797,1Z" transform="translate(-3.96 -1)"/></g></g></svg>