<svg xmlns="http://www.w3.org/2000/svg" viewBox="0 0 1200 1055.75"><title>Asset 1</title><g id="Layer_2" data-name="Layer 2"><g id="Layer_1-2" data-name="Layer 1"><path d="M652,1h1c.28,3,.46,6,.85,8.95,2.7,20.95,4.48,42.07,8.4,62.79,5.46,28.85,15.48,56.19,33.45,79.92,23.12,30.54,53.73,45.85,92.1,40.74,44.63-5.94,78.06-30.25,100.81-68.63C913.38,83,906.44,38.57,871.15,5.43a48.42,48.42,0,0,1-3.21-3.66c1,.19,2,.32,2.93.58,36.89,10.31,73,22.7,107.9,38.64,48.5,22.16,93.32,49.9,131.32,87.72,48.91,48.67,79,106.9,88.07,175.57,1.09,8.22,1.9,16.48,2.85,24.72v37c-.29,1.62-.65,3.24-.86,4.87-1.91,15-3.09,30.18-5.81,45-9.5,51.8-28.7,100-55.55,145.21-16.16,27.19-35,52.35-58.38,73.87-13.06,12-27,22.78-44.18,28.48-4.11,1.37-8.48,2-12.4,2.84-1.27-6.07-2-11.2-3.46-16.1a90.66,90.66,0,0,0-5.85-14.83c-20.17-39.58-49.89-69.83-90-89-37.22-17.8-74.7-17.37-111.41,2.16-28.62,15.23-50.28,38.13-69.05,64-28.71,39.55-49,83.49-66,129-32,85.62-51.91,174.39-68,264.13-3,16.59-5.64,33.23-8.65,51.08a40.94,40.94,0,0,1-1.22-3.94c-4.07-23.62-7.81-47.31-12.22-70.87-13.35-71.22-29.68-141.72-53-210.43-17.43-51.38-38.14-101.29-68.27-146.76-16.86-25.44-36.32-48.6-61.57-66.26-33-23.09-69.06-31.57-108-19.23-48,15.2-82,47.71-106.56,90.73-6.39,11.16-10.86,23.11-11.67,36.88-5-1.22-9.47-1.93-13.67-3.38-16.72-5.77-30.48-16.26-43.27-28.1-30.21-28-53-61.51-71.81-97.81C25.92,490.9,9.71,441.64,3.54,389.28,2.58,381.2,1.84,373.09,1,365V331c.65-6.08,1.31-12.17,1.94-18.25,4.43-43,17.37-83.3,39.41-120.53C72.51,141.27,115,102.8,164.92,72c45.78-28.26,95.24-48.17,146.5-63.89,7.3-2.24,14.69-4.16,22-6.23a14.24,14.24,0,0,1-3.87,5c-32.15,31-39.54,71.83-19.46,111.4,17.22,33.93,44.31,57.1,80.1,69.73,26.13,9.22,52.28,9.35,77.76-2.74,21.92-10.4,37.28-27.63,48.93-48.41,17.59-31.38,25-65.76,29-101C547.26,24.25,548,12.61,549,1h1c5.95,7.51,11.83,15.08,17.87,22.52,2.61,3.22,5.54,6.19,8.33,9.26,10.15,11.16,39.24,11.08,48.14,1.33C634,23.5,642.82,12.07,652,1Z" transform="translate(-1 -1)"/></g></g></svg>