<svg xmlns="http://www.w3.org/2000/svg" viewBox="0 0 799.89 877"><title>Asset 1</title><g id="Layer_2" data-name="Layer 2"><g id="Layer_1-2" data-name="Layer 1"><path d="M0,406.1V391.4a26,26,0,0,0,.5-3.9,557.47,557.47,0,0,1,6.8-76.3A517.88,517.88,0,0,1,40.8,192C72.6,116,120.1,52,185.7,1.9c.7-.6,1.5-1,2.8-1.9-.5,1.6-.8,2.5-1.1,3.5-3,10-6.4,19.9-9,30-6.3,24.8-9.7,49.9-6.6,75.5,4.5,37.7,22.7,67,54.2,88,24,16.1,51,24.7,79,30.4,12.2,2.5,24.4,4.6,36.7,6.7a4,4,0,0,0,3.2-1.4,12.3,12.3,0,0,0,1.8-4.6c1.6-8.4,3.1-16.8,4.6-25.2,1.8-9.8,3.4-19.7,5.3-29.5.4-2,1.2-4.5,2.7-5.5,2.8-1.9,3-4.5,3.3-7.2.4-3.1.4-6.2.8-9.3a32.78,32.78,0,0,1,1.5-5.1c.4-.1.8-.1,1.3-.2a61,61,0,0,1,3.4,5.4c1.4,3,2.4,6.2,3.8,9.2,1.1,2.3,2.6,3.1,5.3,1.6,6.1-3.6,12.5-6.8,18.6-10.4a5,5,0,0,1,5.7.1c6,3.5,12.3,6.7,18.3,10.3,2.7,1.6,4.4,1,5.5-1.6,1.4-3.1,2.5-6.4,3.9-9.5.8-1.8,2.2-3.3,3.3-5l1.2.3a29,29,0,0,1,1.4,4.8c.4,3,.4,6,.8,9,.3,2.2.4,5.1,1.8,6.2,3.2,2.5,4.2,5.7,4.8,9.2,2.1,12,3.9,24.1,6.1,36.1,1.2,6.6,2.8,13.2,4.4,19.8.4,1.5,1,3.2,3.4,2.8,12.2-2.3,24.5-4.3,36.7-6.7,24.6-4.9,48.4-12.3,70.3-24.8s39.7-29.2,51.1-52c13.6-27.2,15.4-56.2,11.8-85.8-2.6-21.2-8.2-41.8-15.3-61.9a12.56,12.56,0,0,1-.6-2.6c.7.4,1,.5,1.3.7A440.9,440.9,0,0,1,713,106.4c55.1,81.7,82,172.6,86.4,270.5a553.32,553.32,0,0,1-4.5,97.1,531.25,531.25,0,0,1-28.8,116.7c-27.9,75-70.4,140-131.5,192.3-7.2,6.2-14.8,12-22.2,17.9a7,7,0,0,1,.3-3.6c6.8-24.5,14.2-48.8,20.3-73.4,6.2-24.9,9.9-50.4,9-76.2-.4-12.6-2.1-25-7.9-36.5-8-15.8-22.3-22.3-39.2-17.1-22.9,7.1-38.7,22.5-47.8,44.5-2,4.7-2.6,9.9-4,15.6a94,94,0,0,1-5.8-8c-4.7-7.9-9.1-16-13.9-23.9-6.2-10.3-12.6-20.5-22.3-28-10.1-7.8-20.2-7.5-28.9,1.8a87.54,87.54,0,0,0-13.3,18.6c-10,18.4-16.1,38.4-21.6,58.6-16.1,59.7-25.4,120.7-34,181.8l-3,21.9a16.76,16.76,0,0,1-1.6-6c-6.2-47.4-13.3-94.7-22.8-141.6-6.1-29.9-13-59.6-23.3-88.4-5-13.8-10.5-27.4-19.5-39.2a41.44,41.44,0,0,0-4.4-5c-10.2-10.1-21-10.4-31.8-.8-8.5,7.6-14.6,17-20.4,26.6-5.3,9-10.5,18-15.9,27a38.58,38.58,0,0,1-3.8,4.4c-1.1-5-1.7-9.6-3.2-13.8-7.2-19.5-20.7-33.4-39.1-42.6-7.5-3.8-15.6-5.9-24.2-4.8-12.3,1.5-20.1,9.1-25.1,20-5.3,11.3-6.8,23.4-7.2,35.7-.7,20,1.9,39.7,5.6,59.3,5.7,30.6,14.3,60.4,23.8,90,.3.9.6,1.9,1.1,3.6-1.7-1.3-2.6-1.9-3.5-2.6a413,413,0,0,1-74.8-72.3c-45.9-57-76.1-121.7-93.8-192.4A544.92,544.92,0,0,1,.3,412.2,54,54,0,0,0,0,406.1Z"/></g></g></svg>