<svg xmlns="http://www.w3.org/2000/svg" viewBox="0 0 1200 525"><title>Asset 1</title><g id="Layer_2" data-name="Layer 2"><g id="Layer_1-2" data-name="Layer 1"><path d="M1201,469v3c-13.59-9.31-26.76-19.32-40.85-27.81-44.43-26.75-93.3-42-143.45-53.53-1.6-.37-4.16.75-5.42,2-8.12,8.13-16,16.49-24.22,25-9.83-10.58-18.86-20.36-28-30.06a17.73,17.73,0,0,0-5.38-4.31c-8.07-3.51-16.08-7.41-24.5-9.87-23.52-6.89-46-5.06-67.91,7.33-61.43,34.77-123.22,68.92-184.85,103.36Q639.16,505,602,526h-2c-1.64-1.08-3.21-2.28-4.92-3.23q-129.32-72.21-258.66-144.4a72.33,72.33,0,0,0-27.5-8.4c-20.79-2.38-39.94,3.23-58.29,12.31a29,29,0,0,0-7.89,5.88c-9.08,9.48-17.94,19.18-27.48,29.44-8.35-8.61-16.27-16.95-24.43-25a7,7,0,0,0-5.46-1.87c-38.87,8.85-76.88,20.37-113.11,37.27C46.76,439.85,23.31,455,1,472v-3a22.8,22.8,0,0,0,1-3.26A613.29,613.29,0,0,1,25.31,365.2Q80,197.24,208.4,75.8C240.83,45.12,274.81,16.16,318,1h6c5.25,13.31,10.65,26.56,15.66,40a8.65,8.65,0,0,0,6.84,6.09q63.19,15.82,126.27,32c2.38.61,4.66,2.76,6.34,4.74,3.54,4.17,6.25,9.09,10,13,7.09,7.38,13.64,6.3,17.06-3.33a123,123,0,0,0,5.63-24.7c1.29-9.64,1.41-19.43,2.09-30,9.45,8.66,18.49,16.73,27.26,25.08,2.56,2.44,5,3.29,8.44,2.63a261.71,261.71,0,0,1,61.59-4.35c13.77.67,27.49,2.59,41.18,4.33a10.11,10.11,0,0,0,9.31-3C669.47,56,677.53,48.8,685.5,41.47a30.75,30.75,0,0,1,3-2.17c.49,8.82.4,17.2,1.57,25.4,1.38,9.67,3,19.45,6.07,28.68,3.26,9.87,10.16,10.89,17.35,3.24,3.62-3.85,6.2-8.65,9.66-12.68,1.78-2.08,4.23-4.26,6.76-4.91C772,68.19,814.1,57.61,856.16,46.8c2.08-.54,4.76-2.18,5.5-4C867.34,29,872.61,15,878,1h6c2.31.8,4.64,1.57,6.94,2.4,18.69,6.74,35.16,17.45,51,29,49.25,35.95,91,79.43,127.7,127.93,62.69,83,105.55,175,125.49,277.28C1197.2,448.09,1199.06,458.55,1201,469Z" transform="translate(-1 -1)"/></g></g></svg>