<svg xmlns="http://www.w3.org/2000/svg" viewBox="0 0 1200 630.41"><title>Asset 1</title><g id="Layer_2" data-name="Layer 2"><g id="Layer_1-2" data-name="Layer 1"><path d="M100,1h2a33.81,33.81,0,0,0,2.82,3.89c22.57,23.49,48.71,42.48,76.58,59C279,121.8,384,160.2,495.33,181.74c7.76,1.5,15.64,2.44,23.69,3.67L543.57,39.77a192.83,192.83,0,0,1,13.72,22.57c1.53,2.9,3.25,4,6.61,3.74,9.78-.87,19.59-2,29.39-1.9,14.43.1,28.87,1,43.28,1.88,4.4.28,6.89-.8,8.92-4.92,3.62-7.35,8-14.34,12-21.47l1.06.27L683,185.12a47.12,47.12,0,0,0,5.39-.46c28.17-5.88,56.64-10.61,84.43-17.94,81.95-21.62,160.34-52.44,234-94.58C1041.25,52.48,1073.81,30.26,1101,1h1c10.63,7.45,17.71,17.85,23.94,28.91,14,24.79,23.78,51.32,32.28,78.34,22.75,72.29,36.06,146.34,41,221.94.56,8.61,1.21,17.21,1.82,25.81v52c-.27,2.29-.69,4.57-.79,6.87A546.44,546.44,0,0,1,1191,495.7c-8.2,42-21.49,82.09-45.69,117.9-4.13,6.11-8.78,11.85-13.21,17.79-4.85-14.38-8.93-28.11-14.1-41.42-8.44-21.73-19.52-42-36.53-58.44-14.61-14.12-31.74-21.92-52.47-19.41-15.63,1.89-29.13,9-41.76,18-2.54,1.8-5,3.64-7.85,5.66-1.25-5.41-2.26-10.29-3.51-15.1-5.6-21.45-13.53-41.84-28-59-27.1-32.11-69.07-35.52-100.48-7.65-7.34,6.51-13,14.91-19.31,22.28,0,.13-.22-.58-.44-1.31-5.9-19.4-16.49-35.95-30.84-50.1-27.69-27.29-60.25-29.52-91.51-6.42a153.8,153.8,0,0,0-32.43,33.09c-31.94,43.48-54.07,91.87-71,142.84-.1.29-.81.37-1.44.63a54.28,54.28,0,0,0-1.66-7.31c-13.75-36.5-29-72.32-49-105.89-13.38-22.41-28.33-43.62-48.84-60.26-12-9.7-25.12-17-40.78-18.56-22-2.19-39.54,7-54.68,21.87a119.43,119.43,0,0,0-31.74,52.66c-2.77-4.21-5-8.3-7.9-11.91C348.54,444,326.62,432.74,298.61,436c-18.7,2.17-33.17,12.22-45,26.4-12.6,15.13-20.16,32.82-25.56,51.53-2,7.08-3.65,14.29-5.34,21-9.2-5.45-18-11.24-27.25-16-12.61-6.43-26.15-8.85-40.26-6.24-18.76,3.47-32.48,14.83-44,29.12-16.81,20.79-27.14,44.91-35.11,70.16-2,6.24-3.61,12.59-5.57,19.47-1.33-1.46-2.24-2.38-3.05-3.37A231.84,231.84,0,0,1,35.06,574.3c-20-45.39-28.69-93.35-32.14-142.49Q2,418.4,1,405q0-23.5,0-47,.6-9.92,1.21-19.84A988.45,988.45,0,0,1,25.05,177.64c10.06-43.87,22.3-87.08,41.12-128.11C74.49,31.4,83.26,13.36,100,1Z" transform="translate(-1 -1)"/></g></g></svg>