<svg xmlns="http://www.w3.org/2000/svg" viewBox="0 0 839.66 384.43"><title>Asset 1</title><g id="Layer_2" data-name="Layer 2"><g id="Layer_1-2" data-name="Layer 1"><path d="M657.12.48c1.11.39,2.22.82,3.34,1.17,18,5.56,35.2,13,52.26,20.9a397.51,397.51,0,0,1,85.56,53.12c7.84,6.42,15,13.65,22.23,20.82,5.31,5.3,10.19,11,15.15,16.68a32.58,32.58,0,0,1,5,7.73c-1.09.06-1.91.13-2.73.13-13,0-25.92.08-38.88,0a107.37,107.37,0,0,0-49.23,11.63c-15.63,7.78-29,18.53-41.59,30.56-10.74,10.3-18.94,22.47-26.62,35a256.6,256.6,0,0,0-22.76,48c-.26.74-.57,1.47-.94,2.41-1.28-.26-2.51-.49-3.73-.77-12.32-2.82-24.73-5.15-37.25-6.81a171.86,171.86,0,0,0-39.26-.75c-6.76.65-13.55,1.19-20.24,2.34a129.92,129.92,0,0,0-46.64,18.14,192.89,192.89,0,0,0-61,60.17c-10.62,16.43-18.39,34.18-25,52.51-1.11,3.08-2.13,6.2-3.21,9.29-.2.58-.47,1.14-.87,2.09-.83-2.42-1.52-4.43-2.21-6.45-5.67-16.42-12.1-32.52-20.74-47.64-15.54-27.2-36.13-49.73-62.29-67-14.95-9.89-31.06-17.15-48.72-20.56-6.65-1.29-13.44-2-20.19-2.65a185.81,185.81,0,0,0-29.48-.59,197.57,197.57,0,0,0-25.2,3.19c-9,1.69-18,3.59-27,5.39-.31.06-.62.06-1.12.1-.3-.73-.62-1.44-.87-2.17a257.74,257.74,0,0,0-38.8-71.61,131.5,131.5,0,0,0-12.46-13.28A162.34,162.34,0,0,0,98.19,136a110.9,110.9,0,0,0-39.57-13.9,101.61,101.61,0,0,0-13.14-1C31.65,121,17.81,121,4,121H1a25.13,25.13,0,0,1,1.77-3.2c3.28-4.23,6.42-8.6,10-12.57A305.82,305.82,0,0,1,42.85,76.07,349.1,349.1,0,0,1,76.75,51.33c25.37-16.64,52.55-29.77,80.6-41.13,8.28-3.35,16.85-6,25.29-9,.58-.2,1.12-.5,1.68-.75h1c7.76,12.85,17.67,24,28.66,34a194.4,194.4,0,0,0,37.71,26.69A175.19,175.19,0,0,0,333.4,83.5c7.67.17,15.36.06,23,.07a17.09,17.09,0,0,0,1.75-.19c2.27-18.57,4.36-37.08,6.66-55.56l.51,0L389,74.27h63.76l23.61-46.52.53.1,6.65,55.72h2.37c5.52,0,11,0,16.56,0a179.68,179.68,0,0,0,34.82-3.13,178.37,178.37,0,0,0,61.18-24.2c13.68-8.53,26.61-18,37.62-29.93C642.85,19,649.48,11.48,654.85,3c.5-.8.87-1.68,1.31-2.52Z" transform="translate(-0.97 -0.48)"/></g></g></svg>