<svg xmlns="http://www.w3.org/2000/svg" viewBox="0 0 1198.81 505.59"><title>Asset 1</title><g id="Layer_2" data-name="Layer 2"><g id="Layer_1-2" data-name="Layer 1"><path d="M601.37,506.69c-12.34-30.06-27.69-57.6-50.13-80.53-44.14-45.09-96.59-56.69-156.24-37.51-20,6.42-38.26,16.26-55.44,28.23q-2,1.43-4.16,2.77c-.24.16-.62.1.31,0-9.09-16.39-17.35-32.73-27-48.24a146.37,146.37,0,0,0-40.82-42.75c-4.44-3.12-8.9-4.63-14-2.85-13.18,4.58-26.71,8.42-39.35,14.21-68.91,31.57-134.42,69.12-195.93,113.5-5.51,4-10.71,8.38-17.21,13.49,1.84-4.78,3.14-8.3,4.56-11.78,16-39.3,30.79-79.13,48.25-117.77,27.92-61.8,63.85-118.73,109.59-169.17Q268.82,52.44,421,17C461.77,7.57,503.1,3.25,544.84,2.29a7.22,7.22,0,0,1,3,.41C507.46,24.92,466.51,46,430.87,76.44A91,91,0,0,0,466,94.08c19.85,5.3,40.27,4.92,60.54,5.75,1.34.06,3.46-1.84,4.06-3.3,5-12,9.87-24,14.43-36.15,7.12-18.94,15-37.44,28.51-52.89,1.62-1.85,3.34-3.61,5.94-6.4l2.37,42.66h38.74l2.34-41.27,1.34-.72c4.62,5.94,9.56,11.66,13.79,17.87,10.51,15.43,16.38,33,22.93,50.31,3.42,9,7.19,17.91,11,26.76.59,1.35,2.45,3.15,3.64,3.1,21.93-.95,44.07-.39,65.35-7.09a86.11,86.11,0,0,0,30.45-16.38C735.87,46,695,24.86,654.62,3.19c9.21,0,18.42-.43,27.59.07C739.09,6.39,794.56,16.71,847.93,37a481.84,481.84,0,0,1,149.59,90.59c55.8,49.53,98.56,109,133.31,174.63,25.94,49,45.9,100.48,65.16,152.3,1.32,3.56,2.69,7.1,4.24,11.18-.89-.23-1.33-.22-1.6-.44-40.94-33.47-86.41-60-132.31-85.81-30-16.9-60.56-32.95-92.63-45.75-8.32-3.32-17-5.79-25.6-8.31-4.65-1.36-9-.4-13.18,2.53-23,16-39.66,37.37-52.8,61.69-5.28,9.78-9.77,20-14.23,29.22-14.07-7.77-27.76-16.46-42.36-23.18-36.28-16.69-74-22-112.74-9.49-34.56,11.11-60.23,34-81,63C620.26,465.46,611,483,603.16,501.2,602.45,502.84,602,504.61,601.37,506.69Z" transform="translate(-1.43 -1.1)"/></g></g></svg>