<svg xmlns="http://www.w3.org/2000/svg" viewBox="0 0 1200 653.45"><title>Asset 1</title><g id="Layer_2" data-name="Layer 2"><g id="Layer_1-2" data-name="Layer 1"><path d="M1,400v-3a93,93,0,0,0,3.48-8.68c14.09-48.2,36-92.71,63.71-134.42,51.49-77.61,116-142.81,190.55-198.31,21.65-16.13,44-31.28,68.52-42.83C332,10.53,337,8.88,341.87,7,337.27,13.6,332,19.1,327,24.84c-16.32,18.64-31.17,38.29-39.47,62-6.79,19.35-8,38.58,4.33,56.45,10.61,15.38,26.46,23,43.85,27.65,25.95,7,52.12,6.35,78.21.95,35-7.25,66.35-21.73,91.5-47.83,25.73-26.71,36.14-58.82,32.85-95.5-.75-8.42-2.3-16.76-3.37-24.35,6.64,7.67,13.21,16.34,20.9,23.88,12.71,12.48,26.06,23.16,46.18,21.64,9.64-.73,18.8-1.45,26.33-7.15a273.16,273.16,0,0,0,26.07-23.1c4.94-4.85,8.79-10.8,13.62-16.88-.6,2.82-1,4.89-1.48,7-4.19,20.32-4.86,40.63.27,60.91,9.55,37.74,34,63.34,67.08,81.67,27.44,15.21,57.15,22.7,88.41,23.61,22.21.65,43.92-2.32,64.07-12.44,24.34-12.23,35.27-31.85,32.6-58.53-1.21-12.08-5.66-23.25-11.21-33.94-11-21.2-26.05-39.39-42.36-56.64l-5.93-6.28a19.52,19.52,0,0,1,8.49,1.92c13.11,6.85,26.68,13,39.08,21,74.53,47.94,138.65,107.44,193.6,176.83,35.77,45.16,65.62,93.88,86,148,5.38,14.3,9.64,29,14.42,43.54-1.79-.77-3.78-1.25-5.34-2.35q-11.64-8.21-23.08-16.69c-21.61-15.95-43.73-31-68.67-41.5-23.31-9.77-47.35-14.59-72.66-11-27.32,3.88-50.34,16.68-70.81,34.54-27.89,24.33-48.28,54.48-66.31,86.4-3.42,6.06-6.69,12.21-10.25,18.73l-5.67-4.61c-14.06-11.35-29-21.26-45.73-28.32C794,418.09,757.44,421.71,723,445.6c-17.57,12.2-32.12,27.5-44.88,44.52-29.68,39.59-50,84-66.07,130.47-3.95,11.39-7.28,23-11.19,35.43-.78-2.5-1.34-4.15-1.81-5.81-14.2-49.92-34-97.41-62.1-141.17-14.6-22.7-31.57-43.39-53.28-59.76-29.89-22.55-62.79-30.58-99.32-19.93-23.27,6.78-43.27,19.56-61.91,34.68-1.37,1.11-2.79,2.14-4.43,3.4-3.81-7-7.3-13.58-11-20.07-17.82-31.47-38.05-61.12-65.58-85.08Q175.69,305,95.65,339.88c-25.24,11-47.6,26.62-69.67,42.77C17.8,388.63,9.34,394.23,1,400Z" transform="translate(-1 -2.56)"/></g></g></svg>