<svg xmlns="http://www.w3.org/2000/svg" viewBox="0 0 1024 579.2"><title>Asset 1</title><g id="Layer_2" data-name="Layer 2"><g id="Layer_1-2" data-name="Layer 1"><path d="M1025,354v24c-.93,3-1.49,6.16-2.91,8.89a11.87,11.87,0,0,1-5,4.92c-.64.31-2.88-2.43-4.25-3.91A20.22,20.22,0,0,1,1011,385c-17.63-27.54-37.47-53.17-64.57-72.17-40.6-28.48-82.71-30.53-125.85-6-24,13.65-43.42,32.55-59.39,54.87-7.91,11.06-14.63,23-21.72,34.2-5.26-3.64-10.63-8.21-16.71-11.4-19.7-10.33-39.39-7.25-58.71,1.43-21.93,9.86-40.32,24.75-56.74,41.94C565,472.12,530.79,521.53,512.68,581c-1-3.82-1.87-7.78-3.06-11.66a124.73,124.73,0,0,0-4.31-12.25c-23.86-56-58.1-104.69-103.67-145.18-13.39-11.9-28.18-21.84-45-28.32-16-6.17-32.45-8.46-48.63-1.27-7.78,3.46-14.71,8.83-22.34,13.52.52.4.16.25,0,0-.64-1.16-1.2-2.37-1.81-3.55-17.23-33.56-40.78-61.62-72.67-82.11-23.51-15.1-49.08-23-77.36-19.45-25,3.1-46.15,14.57-65.17,30.44-22.78,19-40.33,42.41-55.9,67.43-2.86,4.6-5.81,4.63-8.11-.28C2.95,384.77,2.17,380.79,1,377V355c1.84-10.48,3.06-21.11,5.62-31.41,26.7-107.24,88-188.27,184.52-242.36,12.28-6.88,25.29-12.49,37.74-18.57,4.61,12,8.26,23.48,13.29,34.29,14.19,30.55,35.51,54.34,67.49,66.93,53.14,20.91,114.53-2.1,144.37-53.17a17.29,17.29,0,0,0,1.77-5.65c4.11-23.12,8-46.27,12.28-69.36,2-10.93,4.61-21.75,7.22-33.9.9,2.85,1.43,4.4,1.88,6,6,21,12,41.94,17.93,63,.84,3,2,4.32,5.41,4.2,8.32-.3,16.67-.29,25,0,3.37.12,4.63-1.12,5.43-4.17,2.24-8.54,4.76-17,7.18-25.49,4-14.05,8.06-28.11,12.29-42.87A16.85,16.85,0,0,1,551.52,5c5.53,28.11,11.78,56.1,16.22,84.37,2.26,14.41,5.47,27.6,15.94,38.23,1.87,1.9,3.51,4,5.34,6C627.15,174,686.92,183.33,733,155.75c27.35-16.39,44.55-41.06,55.92-70.23,2.83-7.26,5-14.76,7.75-22.78,9.37,4.36,18.72,8.29,27.69,13C926.58,129,991.4,211.93,1019.47,323.64,1022,333.6,1023.19,343.87,1025,354Z" transform="translate(-1 -1.82)"/></g></g></svg>