<svg xmlns="http://www.w3.org/2000/svg" viewBox="0 0 800.2 410.7"><title>Asset 1</title><g id="Layer_2" data-name="Layer 2"><g id="Layer_1-2" data-name="Layer 1"><path d="M0,252V223.3c.2-1.3.4-2.6.5-3.9,1.3-11.9,2-23.9,3.9-35.7A261.07,261.07,0,0,1,49.4,73C64.3,52,80.3,31.8,95.9,11.3a3.33,3.33,0,0,1,.6-.3c.4.5.8,1.1,1.2,1.6a240.08,240.08,0,0,0,36.8,44.2c17.7,16.8,37.4,30.8,60.4,39.5,20.2,7.7,40.9,10.3,62,3.6,20.9-6.6,36.1-20.4,48.3-38,12.5-17.8,20.5-37.8,27-58.4.4-1.3,1.6-2.3,2.5-3.5,1.2,1.1,2.9,2,3.5,3.4a103.32,103.32,0,0,1,3.3,10.8c4.8,15.8,15.1,26.1,31.1,29.7a121.18,121.18,0,0,0,56.8-.4c14.9-3.7,24.7-13.6,29.4-28.2,1.1-3.5,2-7.1,3.1-10.5.7-2,1.1-5,3.8-4.6,1.2.2,2.5,2.7,3,4.4,6.4,20.2,14.4,39.7,26.6,57.1,11.9,17.1,26.6,30.7,46.7,37.5,21.5,7.3,42.7,4.8,63.5-3.1,30-11.5,54.2-31.1,75.1-54.9,8.4-9.6,15.8-20,23.7-30a5.93,5.93,0,0,1,1,1.1c12,15.7,24.1,31.3,36.1,47.1q56.7,74.55,58.7,168.1c.8,35.4-3.3,70.3-10.2,104.9-1.5,7.5-3.2,14.9-5,23.1-.9-1.7-1.4-2.6-1.9-3.6-5.1-9.5-10-19.1-15.5-28.3-10.4-17.2-22.5-33.1-38.3-45.7-26-20.7-54.9-22.5-83.1-4.8-15.2,9.5-27.3,22.4-37.5,36.9-8.3,11.8-15.4,24.2-19.1,38.2-.5,1.7-.8,3.5-1,4.4-5.6-5.3-10.9-11.3-17.2-15.9a157.41,157.41,0,0,0-23.5-14.4c-20.5-9.9-42-12.6-64.1-5.7-17.5,5.5-31.7,16.3-43.9,29.7-16.2,17.9-27.8,38.7-37.6,60.6-.5,1.1-1.1,2.2-1.9,3.8-.8-1.9-1.4-3.2-2-4.5-8.8-19.5-19-38.2-32.8-54.7-12.3-14.8-26.7-27.1-45.1-33.7-25.6-9.2-50.1-4.9-73.6,7.4-13.2,6.9-25,15.7-33.7,26.9-3.1-7.6-5.7-15.8-9.6-23.3-12-23.2-28-43-50.6-56.8-23.6-14.4-47.7-15.3-71.8-.9-11.1,6.6-20.4,15.4-28.7,25.2C38.1,313.1,27.2,332,17.5,351.7l-1.7,3.4a18.68,18.68,0,0,1-.7-1.8C8.4,325.4,3.3,296.9,1.2,267.9Z"/></g></g></svg>