<svg xmlns="http://www.w3.org/2000/svg" viewBox="0 0 800 436"><title>Asset 1</title><g id="Layer_2" data-name="Layer 2"><g id="Layer_1-2" data-name="Layer 1"><path d="M0,408v-1.3c.5-1,1.1-1.9,1.5-2.9,4.4-11.2,8.7-22.6,13.3-33.7C48.7,289,90.7,212.5,144.5,142.8c31.7-41,67.1-78.2,109.2-108.8,2.3-1.7,3.8-1.9,6.3-.2,30.1,20.9,60.4,41.6,90.6,62.3,1,.7,2,1.3,3.2,2a9.64,9.64,0,0,0,.2-1.2c-.9-10.7-2.2-21.4-2.8-32.2-.9-17.6-1.3-35.3-1.8-52.9-.1-4.4.7-8.5,4.8-11.6a31.73,31.73,0,0,1,1.2,4.1c1.4,8.5,2.5,17.1,4,25.7,1.6,9.4,3.4,18.8,5.4,28.1.5,2.4,2,4.6,3,6.9a3.4,3.4,0,0,1,1,.1c5.5-14.6,17-19.4,31.2-19.4s25.6,4.9,31.7,19.4c1.9-3.6,3.6-6.9,4.2-10.5,2.6-14.7,4.9-29.5,7.4-44.3.6-3.3,1.3-6.6,2.1-10.3,5,4.7,4.8,5.6,5.2,12.9,1,22-1.1,43.9-2.9,65.9-.5,6.3-1.1,12.7-1.7,19.8,32.8-22.5,64.9-44.5,97.4-66.8,7.9,6.1,16,12,23.7,18.3,38.1,31.1,70.6,67.6,99.5,107.2,55.5,75.8,98.8,158.2,131.8,246.1.5,1.3.9,2.6,1.6,4.9-3-1.3-5.3-2-7.1-3.2-4.7-3-9.1-6.3-13.8-9.3-6.2-4.1-12.3-8.5-18.9-11.8-11.7-6-23.9-6.1-36.1-1.1-9.5,3.9-17.6,9.9-25.1,16.7-1.6,1.5-3.3,2.9-4.8,4.2-6-4.3-11.6-8.5-17.4-12.5-11.1-7.6-22.8-14.2-35.9-18-21.9-6.3-40.9-.6-55,17.3-4.9,6.2-8.6,13.4-12.5,20.4-1.9,3.2-3.1,6.8-4.6,10.2-.4-.1-.7-.1-.8-.2-.9-.6-1.8-1.3-2.7-1.9-17.2-12.2-35.2-22.9-55.5-29.1-35.5-10.8-66.5-3.4-92.1,23.8-6.6,7-12.2,15-18,22.2-1.9-2.7-4-6.1-6.4-9.3-9.5-12.9-20.7-24.1-35-31.8-22.4-12.1-45.7-12-69.4-4.5-19.8,6.2-37.4,16.7-54.2,28.7-1,.7-2.1,1.5-3.4,2.3-.6-1.4-1-2.4-1.4-3.4-4.2-10.2-9.2-19.9-16.4-28.5-8.5-10.1-18.8-16.9-32.1-18.4-11-1.3-21.4,1.2-31.5,5.4-14.8,6.1-27.8,15.3-40.5,24.8-1.1.8-2.3,1.6-3.4,2.5.1-.3.2-.7.3-1-8.2-5.8-16.1-12.3-24.7-17.3-14.8-8.5-30.2-8.4-45,.2-6.6,3.8-12.6,8.7-19.1,12.8C11.6,401.7,5.7,404.8,0,408Z"/></g></g></svg>