<svg xmlns="http://www.w3.org/2000/svg" viewBox="0 0 799.75 451.2"><title>Asset 4</title><g id="Layer_2" data-name="Layer 2"><g id="Layer_1-2" data-name="Layer 1"><path d="M517.8,0h3.1c5,1.2,10.1,2.2,15.1,3.6,63.3,17.5,120.8,46.5,171.4,88.6,25,20.8,46.3,44.9,62.9,73.1a210.31,210.31,0,0,1,29.3,98.1c.5,12.5-.4,25.1-.7,37.6-.6.3-1.3.5-1.9.8a17.69,17.69,0,0,0-2.1-3.2c-6.3-6.4-12.4-13-19-19.1-14.5-13.5-30.3-25.1-49-32.2-32.1-12.3-61.2-7.1-86.6,16-21.8,19.8-34.5,45.1-41.2,73.4-3.5,15-4.9,30.1-.8,45.2.6,2.3,1.4,4.5,2.3,7-7.3-7.8-14-15.6-21.3-22.8-15.7-15.6-32.9-29.2-53.7-37.7-29.7-12.1-56.6-6.3-77.9,17.6a148,148,0,0,0-17.8,25.1c-12.2,20.9-19.7,43.8-26.1,67.1-1.2,4.3-2.3,8.6-3.5,13a9.67,9.67,0,0,1-1.9-4.3c-5.8-22.9-12.9-45.3-23.4-66.5-7.6-15.4-16.7-29.8-29.7-41.3-14.2-12.5-30.6-18.4-49.6-16.3-13.2,1.5-25.2,6.3-36.5,12.9-21.6,12.6-39.5,29.6-55.8,48.3-.9,1.1-1.9,2.1-3.3,3.7,1.1-4.8,2.3-8.8,2.9-12.9a64.62,64.62,0,0,0,.8-12.4C202.1,324,188,291,160.5,264.2c-14.6-14.3-32.4-22.6-53.1-23.3-17.9-.6-34.4,4.9-49.8,13.6-20.2,11.4-37,26.9-52.5,43.9-.9,1-1.8,1.9-3.2,3.3-.7-5.5-1.3-10.2-1.9-15V260.9c.6-5.3,1.2-10.5,1.9-15.8C8.2,198.4,29,158.6,60,123.7,83.7,97,111.5,75.2,141.9,56.6c38.2-23.3,78.7-41.5,122-53C268.9,2.3,274,1.2,279,0h3.1c-1.1.9-2.1,1.8-3.2,2.6-8.4,6-16.9,11.7-25,18a80,80,0,0,0-20,22.2c-8.4,14.3-7,28,5.2,39.2a83.33,83.33,0,0,0,20.5,13.9c28.7,13.3,58.8,20.6,90.7,18.9,3.6-.2,5.6-1.6,6.8-4.6a35.84,35.84,0,0,0,2.3-7c1.4-9.2,2.8-18.5,3.9-27.8,1.4-12.1,2.6-24.3,4-36.5.2-2.1,1.2-4,1.9-6h1.5c1,3,2.1,6,2.9,9,1.1,4.3,2,8.6,3.1,12.9.7,2.6,2.3,3.6,5.2,3.3a143,143,0,0,1,35.8,0c4.1.6,5.8-1.2,6.6-4.6,1.1-4.8,2-9.7,3.2-14.5a36.07,36.07,0,0,1,2.6-6.1c.5.1.9.1,1.4.2.8,3.4,1.9,6.7,2.2,10.1,1.7,15.5,2.9,31.1,4.8,46.6a116.93,116.93,0,0,0,4.6,20.1c.6,2,3,4.4,4.9,4.8a51.59,51.59,0,0,0,13.6.7,217,217,0,0,0,72.8-16.3c10.1-4.2,19.7-9.5,27.5-17.4,11-11.2,12.9-24.2,5-37.7a83.11,83.11,0,0,0-10.8-14.2C546.1,19,534,10.8,521.7,3A25,25,0,0,1,517.8,0Z"/></g></g></svg>