<svg xmlns="http://www.w3.org/2000/svg" viewBox="0 0 800.01 494.19"><title>Asset 7</title><g id="Layer_2" data-name="Layer 2"><g id="Layer_1-2" data-name="Layer 1"><path d="M431.25,0H432c1.07,4,2.4,8,3.17,12,3.47,18.28,6.59,36.62,10.25,54.86A87.17,87.17,0,0,0,451,83.47a7.81,7.81,0,0,0,5.16,3.79c7.42,1.29,15,1.65,22.41,3a264.41,264.41,0,0,0,86.64,2.06c31.8-4.59,62.66-12.91,93.09-23,3.52-1.16,5.28-.44,7.37,2.36,12,16,21.63,33.46,30.1,51.49a1297.14,1297.14,0,0,1,97.82,296.11c4.11,20.42,7,41.07,6.35,62-.14,4.2-.86,8.38-1.34,12.82-4.43-3.2-8.22-6.13-12.2-8.78s-8.33-5.35-12.64-7.76a832.78,832.78,0,0,0-225.68-86,554.64,554.64,0,0,0-101.7-13c-21.21-.75-42.28,2.06-63.55.71-34.42-2.19-68.66,1.18-102.62,7a743.1,743.1,0,0,0-137.09,37.94C93.91,442.95,45.74,463.73,1.85,493.81L0,482v-12.5c.66-6.31,1.23-12.64,2-18.94,4.33-36.13,12.61-71.46,22.26-106.47,20.3-73.6,44.9-145.67,77.46-214.84C111,109.61,121.12,90.41,134,72.76c2.57-3.53,4.74-4.55,9.19-3a546.7,546.7,0,0,0,74.23,19.74c26.73,5,53.62,7.56,80.76,4.23C312,92,325.66,88.84,339.51,88c8-.48,11-4.12,12.82-10.65.52-1.88,1.25-3.71,1.63-5.62,2.62-13.27,5.07-26.57,7.78-39.81,2.19-10.67,4.66-21.28,7-31.92h.78c1.85,4.7,3.77,9.38,5.54,14.12,1.95,5.24,3.75,10.54,5.62,15.81.82,2.3,2.38,2.86,4.83,2.81q14.79-.28,29.59,0c2.5,0,4-.63,4.8-2.88,1.75-4.9,3.38-9.84,5.23-14.7C427.07,10.06,429.2,5,431.25,0Z"/></g></g></svg>