<svg xmlns="http://www.w3.org/2000/svg" viewBox="0 0 1200 1137.69"><title>Asset 1</title><g id="Layer_2" data-name="Layer 2"><g id="Layer_1-2" data-name="Layer 1"><path d="M661,1h1c1.34,5.13,3.14,10.18,3.94,15.39,7.11,46.4,13.77,92.87,21.13,139.23q8.84,55.72,19.11,111.2c2.18,11.67,6.39,23.06,10.64,34.21,2.77,7.28,5.49,7.43,11.5,2.7A734.62,734.62,0,0,0,817,221c37.35-41,70-85.63,101.1-131.4,2.74-4,5.49-4.83,9.89-4.08,12.18,2.09,23.26,6.91,33.79,13.11,28.49,16.77,52,39.34,73.65,64,52,59.23,90.68,126.51,119.39,199.65,26.86,68.42,42.82,139.25,45.37,212.89.13,3.63.5,7.26.76,10.89v18c-.25,1.79-.57,3.57-.73,5.37-1.75,20.73-2.63,41.57-5.36,62.18-7.83,59.16-26.4,115-54.1,167.82C1102.32,912.73,1049,973.94,985.89,1027c-50.43,42.42-105.46,78-163.52,109-1.23.65-2.52,1.18-4.57,2.13,1.08-2.83,1.75-4.83,2.59-6.77q30.51-69.77,61-139.52c19.64-45,37.74-90.66,50-138.36,1.23-4.79.23-10.54-1.1-15.48-1.48-5.49-6.49-8.18-11.84-6.21-6.77,2.5-14,5.28-19.35,9.84-14.6,12.35-28.93,25.14-42.29,38.8-19.79,20.25-38.63,41.43-57.95,62.15C795.7,946,792.2,949,788,953c-2.21-8.47-4.53-15.9-6.07-23.48-5.16-25.44-9.71-51-15.12-76.4-4.35-20.42-10.35-40.37-22.88-57.58-3.08-4.23-6.74-8-10.81-12.82L600.94,1094.58,469.3,783.92l-1.86-.41c-5.16,7.29-10.84,14.27-15.36,21.93-8.81,14.93-13.47,31.51-17,48.32-5.32,25.58-10,51.29-15.17,76.9-1.49,7.33-3.8,14.5-5.82,22.06-8-7.81-15.46-14.69-22.45-22-21.6-22.68-42.79-45.76-64.58-68.25-10.42-10.76-21.71-20.77-35.25-27.66s-21.19-2.51-22.38,12.42a21,21,0,0,0,1,6.83c11.11,41.75,26,82.16,43.16,121.76,21,48.57,42.44,97,63.65,145.46,2.36,5.39,4.47,10.9,7.14,17.44-2.49-1.22-3.81-1.81-5.09-2.49a997,997,0,0,1-112.55-69.54C216,1030.16,169.49,988.9,129.3,940.78c-38.62-46.23-69.77-97-91.79-153.15A512.35,512.35,0,0,1,2.79,630.82Q1.88,615.91,1,601q0-4.5,0-9c.22-2.29.6-4.59.63-6.89.75-53.28,8.91-105.48,23.44-156.65,25.87-91.11,67.41-174.32,126.76-248.33,23.23-29,48.84-55.59,80-76.29,13.12-8.72,27-15.81,42.8-18.41,4.07-.67,6.56.21,9.06,3.83,13.18,19,26.47,38,40.16,56.68,43.07,58.73,91.78,112.12,149.1,157.39,7.81,6.17,9.19,3.66,13-3.08a17.12,17.12,0,0,0,1.62-3.65c3.19-11.19,6.94-22.27,9.36-33.63,13-61,19.85-122.91,29.2-184.46C530,52.57,535.33,26.83,540,1h1c2.37,6.88,5.16,13.65,7,20.67,4.55,17.2,8.41,34.58,13.05,51.75,3.47,12.84,3.79,12.52,16.86,11a225.1,225.1,0,0,1,28.3-2c8.44.09,16.91,1.45,25.28,2.84,4.1.68,5.88-.79,6.92-4.28,2.18-7.33,4.47-14.62,6.53-22C650.36,39.69,655.66,20.34,661,1Z" transform="translate(-1 -1)"/></g></g></svg>