<svg xmlns="http://www.w3.org/2000/svg" viewBox="0 0 1024 724"><title>Asset 1</title><g id="Layer_2" data-name="Layer 2"><g id="Layer_1-2" data-name="Layer 1"><path d="M341,1h7a36.44,36.44,0,0,1-3.07,4.29c-17.63,18.47-34.27,37.76-48.49,59-12.66,18.93-23.4,38.79-28.85,61.13-10.62,43.55,7.87,78,50.1,92.88,23,8.13,46.62,9,70.43,3.91,17.41-3.74,33.33-10.64,46.1-23.47,6.51-6.55,12.39-13.84,13.78-23.28,7.18-48.6,14.1-97.25,21.13-145.88,1.23-8.48,2.52-17,3.79-25.43l.9.06,12.7,69.59c5.6-5.19,10.41-10,15.64-14.39,9.18-7.62,12.6-7.62,21.75,0,5.3,4.41,10.19,9.32,15.69,14.41L552.24,4.28A14.22,14.22,0,0,1,554,9.9c7.48,53.61,15.06,107.21,22.3,160.85a41.55,41.55,0,0,0,11.61,24.32c5.79,5.86,12.1,11.78,19.29,15.59,35.83,19,72.89,19.88,109.85,4C748.68,201,763.58,175,760.94,140.7c-1.63-21.2-10-40.29-20.29-58.55C724.53,53.66,703.6,28.87,681.13,5.28A39.43,39.43,0,0,1,678,1h7a7.91,7.91,0,0,0,1.82.73c21.51,2.84,41.7,10.08,61.44,18.66,45.67,19.86,87.23,46.5,125.83,77.75,40.89,33.1,77.12,70.59,105.45,115.23,20.54,32.37,35.64,67,41.93,105,1.51,9.15,2.37,18.4,3.53,27.61v18c-.42,3.77-.88,7.54-1.25,11.31-4.39,44.27-21.34,83.63-46.94,119.53-28.77,40.34-65,73-104.84,102.07a28.73,28.73,0,0,1-2.8,1.38c1.93-2.55,2.94-3.83,3.89-5.16,16.23-22.79,33-45.23,48.5-68.49C934,505.94,945,486.17,950.25,464c3.8-16.06,1.26-31-9.17-44.31a109.61,109.61,0,0,0-33.54-28.74C872.8,371.74,842.43,381.29,825,417c-8.51,17.43-12.47,36.14-15,55.21-1,7.44-1.71,14.92-2.65,23.25l-4.78-5.12c-16.82-18-35-34.35-57.73-44.65-34.92-15.79-68.38-8.19-91.46,22-24.21,31.71-32.29,67.89-25.57,107.11,1.54,9,5.32,17.55,8.11,26.42-1.5-.43-3.24-.89-5-1.42-14.55-4.52-29.36-7.62-44.67-7.48-29.19.28-49.72,14.36-60.46,41.52a124.49,124.49,0,0,0-4.72,14.73c-4.78,18.55-5.23,37.55-5.64,56.56-.14,6.62-.95,13.23-1.45,19.84h-2c-.41-3.45-1-6.89-1.18-10.35-.4-10.49-.36-21-1-31.48-1.06-18.72-3.67-37.17-11.81-54.35-10.36-21.88-27.6-34-51.82-36.09-16-1.37-31.53,1.49-46.85,5.79-3.26.91-6.5,1.85-9.89,2.82,2.36-6.13,5.1-11.55,6.57-17.29,10.5-41.08,3.07-79.24-21.28-113.51-23.59-33.2-58.51-41.44-95.35-24.09-22.1,10.41-39.85,26.45-56.3,44.13l-4.66,5c-.23-2.3-.31-3.39-.46-4.47-1.68-12.54-2.82-25.18-5.2-37.58-3.63-18.94-9.45-37.21-21.76-52.59-13.35-16.68-30.69-23.08-51.54-18.1-24.11,5.75-42.34,20.24-56.83,39.91-7.79,10.58-9.53,22.58-8,35.13,1.86,15,8.26,28.4,15.17,41.56,17.66,33.62,40,64.14,63.27,94,.95,1.21,1.8,2.5,3.29,4.59a20.27,20.27,0,0,1-2.35-1.09c-40-29.28-76.56-62.21-105.4-102.91-22.14-31.25-38-65.3-44.25-103.37C2.94,381.51,2.13,372.23,1,363V347a50,50,0,0,0,.88-5.35,231.51,231.51,0,0,1,11.53-59.13C30,232,59.45,189.36,95.3,150.81c34.33-36.92,73.32-68.25,116-95,29.12-18.29,59.39-34.37,92.14-45.16C315.66,6.57,328.45,4.16,341,1Z" transform="translate(-1 -1)"/></g></g></svg>