<svg xmlns="http://www.w3.org/2000/svg" viewBox="0 0 1198.58 484.87"><title>Asset 1</title><g id="Layer_2" data-name="Layer 2"><g id="Layer_1-2" data-name="Layer 1"><path d="M944,1h2c3.81,1.49,7.59,3.06,11.44,4.44,49.21,17.72,90.85,47.08,127.92,83.38,45.74,44.78,81.87,96.8,113.88,151.89a21.08,21.08,0,0,1,1,2.84c-4-1.55-7.08-2.69-10.12-3.94-10.3-4.24-20.45-8.93-30.92-12.7-13.68-4.92-27.31-5-40.5,2.31-7.85,4.37-16.12,8-23.89,12.5-24.65,14.26-48.81,29.39-73.89,42.84-8.73,4.68-13.13,9.67-14.23,19.41-1.31,11.5-4.3,22.81-6.65,34.65-2-.88-3.48-1.5-4.93-2.2-16.8-8.08-33.63-16.1-50.37-24.31a8.87,8.87,0,0,0-8.41-.15c-12.7,5.84-25.64,11.19-38.23,17.25-28.8,13.86-57.79,27.35-84.09,45.87-6.62,4.66-9.44,10.93-10.84,18.3-.62,3.26-.81,6.61-1.25,9.91-.86,6.5-1.76,13-2.77,20.36-12.56-8.54-24.23-16.22-35.58-24.34-4.1-2.93-8.34-4.36-13.05-3.44-8.46,1.65-17.09,3-25.17,5.89-31.11,11-59.19,28-87.52,44.59-12.69,7.42-23.28,16.3-30.11,29.46-1.77,3.41-4.31,6.43-6.8,10.07-5.7-8.67-10.84-16.65-16.18-24.49a16,16,0,0,0-4.85-4.84c-24.18-14-48.21-28.37-72.75-41.75-15.34-8.37-31.59-15-48.94-18.29-7.91-1.5-15.3-1.35-22,4.39-5.17,4.4-11.21,7.78-16.85,11.62l-16.47,11.2c-1.35-10.58-2.44-20.15-3.85-29.68-1-6.88-3.06-13.47-9.17-17.66-7.27-5-14.55-10-22.18-14.43-32.5-18.73-66.43-34.57-100.78-49.55a11.37,11.37,0,0,0-10.71.29c-17.73,8.8-35.64,17.24-53.76,25.94-.48-1.56-1-2.78-1.22-4-2.11-10.78-4.6-21.51-6.12-32.38-1.15-8.17-3.68-14.25-12.5-16.67-4.06-1.12-7.71-3.87-11.43-6.08-18.48-11-36.68-22.41-55.45-32.85-14.36-8-29.37-14.83-44.24-21.87a16.46,16.46,0,0,0-9.21-1.3c-8.49,1.43-17.09,2.88-25.22,5.6-9.28,3.1-18.08,7.62-27.13,11.43-2.43,1-5,1.74-8.2,2.84.62-1.47.76-2,1-2.37,28.17-48.56,59.66-94.73,98.1-135.86C132.15,71.5,167,42.16,208.31,21.46,224,13.6,240.74,7.76,257,1h1c3.93,10.43,8.05,20.79,11.69,31.32a11.68,11.68,0,0,0,7.13,7.49q121.25,53,242.43,106.09c1.63.71,3.31,1.32,5.19,2.06,5.43-10.3,10.7-20.3,16-30.3S551,97.69,556.62,87c9.26,19.37,18.76,35.68,44.42,35.67S636.19,106.4,645.46,87l32.29,61.1,61.77-27.07q93.3-40.88,186.55-81.85a10.88,10.88,0,0,0,5.41-5.08C935.91,23.19,939.87,12.06,944,1Z" transform="translate(-1.65 -1)"/></g></g></svg>