<svg xmlns="http://www.w3.org/2000/svg" viewBox="0 0 357.33 370.16"><defs><style>.cls-1{fill:#141414;}</style></defs><title>Asset 1</title><g id="Layer_2" data-name="Layer 2"><g id="Layer_1-2" data-name="Layer 1"><path class="cls-1" d="M0,224.1l3.36,3V150.43s7.83-3.73,14-2.42c1.68.75,1.49,3.17,1.49,3.17V164s8.39-.93,14.73,2.61c-.19.37,0,78.7,0,78.7h6.53V213.09l24.43-.37s-.37,3.73,1.86,5.78c.37,2.61,0,50.17,0,50.17l5.78.75V262h6.34v-3.54h9V206.57H111V254.5a5.47,5.47,0,0,1,5.78-4.1l.93-67.32L121,175.8h9.14l3.17,7.46,1.12,67.51,2.61,36.74V184.37h-1.31v-1.12h4.29l13.61-25.55v-39s-1.12-3.92,5.22-3.92V93.55h-1.3V91.87h8.76V73l6.53-5.6V55.88l2.8-3V21h-.93V19.33h2.63V0h1.49V19.33H181v1.58h-.88v31.8l2.61,3.17V67.26l5.78,5.41V90.94h9.88V93h-2.05v22.38s6.16-.56,6.16,3.92v38.42l12.68,24.62h4.11v2.05h-1.49V208.8l10.07-20h9.7l9.14,19.4V239h4.85V178.22L263,181.39v84.48h4.66l2.43-4.29V202.09l5.41-6.15h6.34l5.22,6.9v51.28l4.48,7.27V160.13l2.8-5.6h20l3.54,6v56.88h29.65v15.29l9.88-12.87S337.07,370.16,177.07,370.16,0,224.1,0,224.1Z"/></g></g></svg>