<!DOCTYPE svg PUBLIC "-//W3C//DTD SVG 1.1//EN" "http://www.w3.org/Graphics/SVG/1.1/DTD/svg11.dtd">
<svg xmlns="http://www.w3.org/2000/svg" xmlns:xlink="http://www.w3.org/1999/xlink" viewBox="0 0 380 391.575">
  <path class="gotham__border" fill="#6A5629" d="M190 0C85.066 0 0 85.065 0 190c0 104.932 85.066 189.998 190 189.998S380 294.932 380 190C380 85.065 294.934 0 190 0zm0 373.102C88.875 373.102 6.896 291.124 6.896 190 6.896 88.875 88.876 6.896 190 6.896S373.104 88.876 373.104 190c0 101.124-81.98 183.102-183.104 183.102z"/>
  <circle class="gotham__background" fill="#333738" cx="190" cy="189.999" r="183.103"/>
  <path class="gotham__border" fill="#6A5629" d="M190 31.724c-87.414 0-158.275 70.862-158.275 158.277 0 87.42 70.86 158.28 158.275 158.28 87.412 0 158.275-70.86 158.275-158.27 0-87.42-70.863-158.28-158.275-158.28zm0 310.806c-84.24 0-152.53-68.292-152.53-152.53 0-84.24 68.29-152.53 152.53-152.53 84.238 0 152.53 68.29 152.53 152.53 0 84.238-68.292 152.53-152.53 152.53z"/>
  <defs>
    <circle id="a" cx="190.987" cy="189.999" r="183.103"/>
  </defs>
  <clipPath id="b">
    <use xlink:href="#a" overflow="visible"/>
  </clipPath>
  <g clip-path="url(#b)">
    <path class="gotham__silhouette" fill="#141414" d="M12.33 230.684l3.356 2.983V157.02s7.832-3.73 13.986-2.424c1.68.746 1.492 3.17 1.492 3.17v12.868s8.393-.932 14.732 2.61c-.186.374 0 78.7 0 78.7h6.527V219.68l24.432-.372s-.373 3.73 1.865 5.78c.37 2.61 0 50.167 0 50.167l5.78.746v-7.46h6.34V265h8.952v-51.845h23.498v47.928s.932-4.288 5.78-4.102l.933-67.32 3.357-7.27h9.14l3.17 7.46 1.118 67.51 2.61 36.74V190.96h-1.306v-1.12h4.29l13.612-25.548v-38.977s-1.12-3.917 5.223-3.917v-21.26h-1.305V98.46h8.764V79.626l6.527-5.595V62.47l2.8-2.985v-31.89h-.935v-1.678h2.626V6.587h1.492v19.33h2.167V27.5h-.877v31.8l2.61 3.17v11.376l5.782 5.408V97.53h9.883v2.05h-2.05v22.38s6.16-.56 6.16 3.917v38.416l12.68 24.617h4.107v2.052h-1.492v24.43l10.07-19.954h9.698l9.14 19.396v30.77h4.85V184.81l11.375 3.17v84.48h4.66l2.427-4.29v-59.49l5.408-6.155h6.34l5.22 6.9v51.285l4.478 7.273V166.717l2.8-5.595h19.956l3.544 5.968v56.88h29.652v15.29l9.884-12.866S349.4 376.742 189.4 376.742 12.33 230.684 12.33 230.684z"/>
    <g fill="#FDB94C" class="gotham__light gotham__rotate">
      <path opacity=".2"  d="M302.513 124.377l-71.03.062c13.81.11 71.03-.07 71.03-.07zm-30.876 50.853s-68.875-9.74-81.01 40.037v.146c-.005-.024-.012-.05-.02-.073l-.018.073v-.146c-12.14-49.777-81.01-40.037-81.01-40.037.84-33.73-26.84-48.822-30.48-50.657h-1.62l46.662 267H254.48l48.026-267.197c.002 0-31.78 14.757-30.874 50.854z"/>
      <path opacity=".8" d="M228.502 124.377c-.006.022-.014.042-.02.065l3-.002c-1.845-.016-2.925-.036-2.98-.063zm-75.787 0c-.454.227-74.01 0-74.01 0s.144.067.398.196l73.65-.065c-.01-.045-.025-.086-.038-.13zM109.58 175.23s68.876-9.74 81.01 40.037v.146l.02-.073.02.073v-.146c12.133-49.777 81.008-40.037 81.008-40.037-.908-36.097 30.876-50.854 30.876-50.854s-57.22.177-71.03.062l-3 .002c-6.824 24.218-24.502 20.82-28.13 20.367-2.044-.68-3.18-6.356-3.406-16.8-2.144 8.578-5.907 7.636-6.318 7.505v-.013h-.02l-.02-.01v.012c-.41.13-4.174 1.072-6.317-7.506-.228 10.443-1.363 16.12-3.406 16.8-3.625.453-21.27 3.842-28.11-20.3l-73.65.064c3.633 1.84 31.322 16.93 30.473 50.66z"/>
    </g>
  </g>
  <defs>
    <path class="gotham__rotate" id="c" d="M302.513 124.377l-71.03.062c13.81.11 71.03-.07 71.03-.07zm-30.876 50.853s-68.875-9.74-81.01 40.037v.146c-.005-.024-.012-.05-.02-.073l-.018.073v-.146c-12.14-49.777-81.01-40.037-81.01-40.037.84-33.73-26.84-48.822-30.48-50.657h-1.62l46.662 267H254.48l48.026-267.197c.002 0-31.78 14.757-30.874 50.854z"/>
  </defs>
  <clipPath id="d" >
    <use xlink:href="#c" overflow="visible"  />
  </clipPath>
  <g clip-path="url(#d)"  class="gotham__light">
    <text transform="translate(115.302 326.906)">
      <tspan x="0" y="0" fill="#FDB94C" font-family="'JosefinSlab-Bold'" font-size="32">
        GOTHAM
      </tspan>
      <tspan x="49.523" y="27" fill="#FDB94C" font-family="'JosefinSlab-Bold'" font-size="20">
        CITY
      </tspan>
    </text>
  </g>
</svg>
