<?xml version="1.0" encoding="utf-8"?>
<!-- Generator: Adobe Illustrator 21.0.0, SVG Export Plug-In . SVG Version: 6.00 Build 0)  -->
<svg version="1.1" id="Layer_1" xmlns="http://www.w3.org/2000/svg" xmlns:xlink="http://www.w3.org/1999/xlink" x="0px" y="0px"
	 viewBox="0 0 993 227" style="enable-background:new 0 0 993 227;" xml:space="preserve">
<g>
	<g>
		<path d="M933.7,148.6c7.2,0,13.8,0,21,0c0,9.1,0,18,0,27.1c3.8,0,7.1,0,10.7,0c0.1-2.1,0.3-4.2,0.4-6.5c5.4,0,10.6,0,16.3,0
			c0,3.4,0,6.8,0,10.7c5.3,0,10.1,0,14.9,0c0,16.6,0,32.7,0,49c-332.6,0-664.7,0-997.3,0c0-2.1,0-4.2,0-6.3c0-6.5-0.1-13,0-19.4
			c0-2-1.1-4.5,2.3-5.4c0.6-0.2,0.9-2.3,1-3.6c0.1-3.6,0-7.2,0-11c2.2-0.2,4.2-0.3,6.3-0.5c0-4.1,0-8,0-12.3c-3.2,0-6.3,0-9.4,0
			c0-1.4,0-2.4,0-3.1c3-1.9,7.5,1.5,9.6-2.3c-0.1-0.4-0.2-0.9-0.3-1.3c-3.1,0-6.1,0-9.4,0c0-1.5,0-2.6,0-4c3.2,0,6.1,0,9.4,0
			c0.1-2.3,0.3-4.4,0.4-6.7c7.7,0,15.2,0,23.2,0c0,2.1,0,4.2,0,6.5c8.3,0,16.2,0,24.3,0c0-14.8,0-29.4,0-44.8
			c-3.3,3.1-6.1,5.9-9.1,8.6c-13.3,12.4-29.2,20.9-45,29.4c-2,1.1-2.8,0.4-3-1.6c7.2-4.1,14.4-8.2,21.6-12.3
			c11.8-6.7,22-15.2,31.7-24.7c3.8-3.8,4.7-7.7,3.7-12.8c-0.5,0.4-1.1,0.6-1.4,1c-13.1,14.3-28.5,25.6-45.4,35
			c-2.5,1.4-4.9,3.1-7.5,4.3c-0.8,0.4-2-0.2-3-0.3c0-0.4,0-0.8,0-1.2c6.7-4,13.3-8.1,20-12c13.8-8.2,25.5-18.7,36.1-30.6
			c1.3-1.4,1.5-3.8,2.3-6.2c0.7,0,1.8-0.1,3.2-0.2c0.2,1.1,0.4,2.1,0.7,3.5c4.2,0,8.4,0,12.8,0c0.4-1.8,0.2-4.5,2.6-2.6
			c1.9,2.6,3.5,5.6,5.8,7.8c22,21.1,47.5,37.2,74.5,51c5.1,2.6,10.2,5.3,15.3,8c0.3,0.2,0.7,0.2,1.4,0.3c0-3.9,0-7.6,0-11.7
			c7.7,0,15,0,22.8,0c0,4,0,7.9,0,12c5,0,9.7,0,14.7,0c0-5.1,0-10.2,0-15.6c6.2,0,11.9,0,18.1,0c0,5.1,0,10.3,0,15.6
			c3.3,0,6.2,0,9.5,0c0-5.7,0-11.2,0-17c6.8,0,13.2,0,20,0c0,9.4,0,18.7,0,27.9c3.5,0.9,3.5,0.9,3.5-2.6c0-19.7,0-39.4,0-59
			c0-1.4,0-2.8,0-4.5c8.6,0,16.8,0,25.3,0c0.1,2.2,0.3,4.3,0.4,6.7c12.1,0,24.1,0,36.3,0c0,11.8,0,23.3,0,35.8
			c4-2.7,7.3-4.8,10.4-7.3c2-1.5,3.4-1.5,5.3,0c2.8,2.2,5.9,4.1,9.4,6.6c0-10.9,0-21.2,0-31.7c3,0,5.6,0,8.5,0c0,24.3,0,48.4,0,72.7
			c1.4,0.1,2.4,0.1,3.7,0.2c0-7.4,0-14.6,0-22.2c3.5,0,6.7,0,10.3,0c0-1.7,0-3,0-4.3c0-14.4,0-28.8,0-43.2c0-1.8-1.1-4.3,2.3-4.6
			c0.2,0,0.4-0.5,0.5-0.9c0.9-4.8,1.8-9.6,2.8-14.4c0.8-4,2-8,2.6-12.1c0.5-3.5,0.5-7.1,0.8-10.9c2.9,0,5.7,0,8.7,0
			c0,1.3,0,2.5,0,4.2c-2.3,0-4.7,0-7.9,0c0.5,2.8,0.9,5.2,1.3,7.5c1,5.5,2.2,10.9,2.8,16.4c0.5,4.4,1.3,7.1,4.4,10.9
			c0.5,0.6,0.4,1.8,0.4,2.8c0,7.3,0,14.6,0,22.2c3,0,5.6,0,8.7,0c0-7.5,0-14.8,0-22c3.8-2.4,9.4,2.2,11.8-3.9c1.8,0,3.7,0,6.2,0
			c0-2-0.2-3.8,0.1-5.4c0.2-1.3,1.2-2.4,1.7-3.6c0.4-0.9,0.8-1.9,0.8-2.8c0.1-3.8,0-7.6,0-11.4c2.7-1.1,2.8,0.4,2.8,2.1
			c0,6.7,0,13.4,0,20.2c0,1.3,0,2.6,0,3.9c0.4,0.1,0.9,0.2,1.3,0.3c0.3-0.9,0.9-1.9,0.9-2.8c0.1-6.7,0-13.4,0-20.2
			c0-0.8-0.1-1.7,0.1-2.5c0.1-0.5,0.8-1,1.2-1.5c0.5,0.5,1.4,1,1.4,1.6c0.1,2.9,0,5.8,0.1,8.6c0.1,1.8-1,4.2,2,5
			c0.3,0.1,0.4,1.5,0.4,2.3c0.1,1.9,0,3.8,0,6.1c1.8,0,3.2-0.2,4.6,0.1c1,0.2,1.8,1.2,2.8,1.8c0.8,0.5,1.7,1.2,2.5,1.3
			c1.7,0.2,3.5,0.1,5.6,0.1c0,11.1,0,21.7,0,32.4c0.2,0,0.5,0.1,0.7,0.1c1-5.6,2-11.2,2.9-16.8c2.4-14.1,5.3-28.1,6.9-42.2
			c1.1-10,0.4-20.1,0.4-30.2c0-2,0-4,0-6.1c1.5-0.2,2.7-0.3,4.2-0.4c2.1-12.2,4.3-24.4,6.4-36.6c0.3,0,0.5,0,0.8,0
			c2.2,11.9,4.3,23.9,6.5,36c2,0.1,3.8,0.2,5.8,0.3c0.1,1.1,0.2,2.1,0.2,3.2c0,2.8,0.2,5.5,0,8.3c-1.1,18.2,1.6,36.1,5,53.9
			c3.3,17.4,6.2,34.9,9.3,52.4c0.3,1.6,0.6,3.3,0.9,5.1c1.4,0.2,2.6,0.3,4.3,0.5c0,3.3,0,6.6,0,10.1c2.2,0,3.9,0,6.1,0
			c0-22,0-43.8,0-65.8c1.6-0.2,2.8-0.4,4.1-0.6c0.2-1.2,0.3-2.3,0.5-3.8c7.3,0,14.7,0,22.3,0c0.2,1.1,0.3,2.3,0.5,3.7
			c1.1,0.2,2.2,0.4,3.8,0.6c0,17.5,0,35.1,0,52.5c3.7,1,3.8,1,3.8-2.4c0-14.6,0-29.3,0-43.9c0-1.3,0-2.6,0-4.2
			c2.3-0.2,4.2-0.3,6.7-0.5c0-1.6,0-3.1,0-4.6c-0.3-8,2.8-14.7,8.1-20.5c2-2.2,4.5-4,6.7-6.1c0.3-0.3,0.5-0.8,0.5-1.3
			c0.7-4.5,1.3-9,2-13.5c0.1-0.5,0.3-1,0.8-2.5c0.6,1.5,1.1,2.1,1.1,2.8c0.4,4.2,0.5,8.5,1.3,12.6c0.4,1.9,2,4.1,3.7,5.2
			c4.7,2.8,7,7.2,9.5,11.8c2.8,5.1,3.1,10.2,2.8,15.6c0.3,0,0.7-0.1,1-0.1c0-30.7,0-61.5,0-92.5c2.7-0.2,5-0.3,7.5-0.5
			c0-5.7,0-11.3,0-17.4c4.1,0,7.9,0,12,0c0-3.3,0-6.1,0-9.1c4.3,0,8.2,0,12.6,0c0,2.8,0,5.6,0,8.9c3.8,0,7.2,0,11.1,0
			c0,6.1,0,11.7,0,17.9c3,0,5.6,0,8.5,0c0,25.9,0,51.3,0,77c3.9,0,7.6,0,11.6,0c0-5.7,0-11.2,0-17.2c3,0,5.6,0,8.5,0
			c0-3.6,0-6.8,0-10.3c2.8,0,5.3,0,8.1,0c0-6.1,0-11.8,0-17.7c4.5,0,8.6,0,13,0c0,5.8,0,11.4,0,17.4c2.4,0,4.7,0,7.2,0
			c0,3.5,0,6.7,0,10.3c2.6,0.2,5,0.3,7.6,0.5c0,18.1,0,36.1,0,53.9c3.4,0.9,3.4,0.9,4-3.4c5.5,0,11.1,0,17.2,0
			c0-34.2,0-68.1,0-102.2c2-0.2,3.7-0.3,5.7-0.5c0.1-2.3,0.2-4.7,0.3-7.2c14.3,0,28.5,0,43,0c0.1,2.4,0.2,4.6,0.3,7.1
			c1.5,0.2,2.9,0.4,4.7,0.6c0,33.8,0,67.7,0,102c3.5,0,6.5,0,9.9,0c0,7,0,13.5,0,20.4c3.6,0,6.8,0,10,0c0.5,5.2,0.9,10,1.5,14.9
			c0,0.1,0.9,0,1.8,0c0-1.4,0-2.7,0-3.9c0-12.1-0.2-24.2,0.1-36.4c0.1-4.9,1.2-9.7,1.9-14.7c4.5,0,8.5,0,12.8,0
			c0.2,1.7,0.3,3.4,0.5,5.4c6.8,0,13.6,0,20.8,0c0,17.8,0,35.3,0,53c1.7,0,3,0,4.6,0c0-3.8,0-7.7,0-11.8c10.8,0,21.2,0,31.8,0
			c0,3.9,0,7.7,0,12.6c5.9-1.5,11.3-2.9,17.1-4.3c0-4.9,0-9.6,0-14.6c2.3-0.1,4.1-0.2,6.4-0.3c0.1-1.6,0.3-3.3,0.4-5.1
			c2.8,0,2.9-1.8,2.9-4c-0.1-16.6,0-33.1,0-49.7c0-4.1-0.4-8.2,0.2-12.2c0.6-3.7,3.5-5.4,7.5-5.3c3.7,0.1,6,1.8,6.8,5.6
			c0.5,2.2,0.6,4.5,0.6,6.7c-0.1,18.5-0.3,36.9-0.4,55.4c0,1.1,1.2,2.2,1.6,3.4c0.5,1.5,0.7,3.2,1.1,5.2c1.8,0.1,3.9,0.2,6.4,0.3
			c0,3.9,0.1,7.6,0,11.3c-0.1,2.3,0.4,3.3,3,3.8c5,1,9.9,2.7,15.1,4.1C933.7,168.4,933.7,158.7,933.7,148.6z M147.8,159.4
			c-11.8-6.5-24.2-12.5-35.6-19.7c-11.5-7.3-22.1-15.8-33.1-23.8c0,12.9,0,26.1,0,39.5c2.8,0,5.3,0,7.8,0c0.3,1.5,0.5,2.8,0.7,3.8
			c4.4,0,8.5,0,13.1,0c0-5.4,0-10.5,0-15.6c5.6,0,10.9,0,16.5,0c0,5.3,0,10.4,0,15.7C127.7,159.4,137.9,159.4,147.8,159.4z
			 M166.4,160.3c0.2-0.6,0.3-1.1,0.5-1.7c-31.6-15.8-61.9-33.5-88.1-59.2c0,3.5-0.3,5.9,0.1,8.2c0.3,1.7,0.9,3.8,2.2,4.8
			c21.5,19.1,45.4,34.5,72.3,44.9C157.4,159,162,159.4,166.4,160.3z M33.1,170.5c0,6.6,0,12.9,0,19.4c4.1,0,8,0,12.2,0
			c0-5.9,0-11.6,0-17.4c2.4,0,4.3,0,6.3,0c0.1,1.9,0.3,3.5,0.4,5.1c1.9,0,3.5,0,5.1,0c0-2.5,0-4.7,0-7.2
			C49.1,170.5,41.2,170.5,33.1,170.5z M212,170.6c-4.9,0-9.6,0-14.5,0c0,6,0,11.7,0,17.6c3.2,0,6.3,0,9.5,0c0.1-2.4,0.2-4.4,0.3-6.4
			c1.9-0.2,3.2-0.4,4.7-0.6C212,177.6,212,174.3,212,170.6z M121.3,188.3c3.1,0,5.8,0,8.6,0c0-6,0-11.8,0-17.8c-4.3,0-8.4,0-12.6,0
			c0,3.7,0,7.2,0,10.7c1.4,0.3,2.5,0.5,3.8,0.7C121.1,184.1,121.2,186.1,121.3,188.3z M163.1,170.5c0,5.4,0,10.5,0,15.7
			c2,0,3.8,0,5.9,0c0-3.7,0-7.2,0-10.8c2-0.2,3.7-0.3,5.4-0.4c0-1.7,0-3,0-4.5C170.6,170.5,167.1,170.5,163.1,170.5z M87.3,170.9
			c0,0.4,0,0.7-0.1,1.1c2,0.2,4,0.4,6.4,0.6c0,3.7,0,7.2,0,10.7c2.5,0,4.4,0,6.5,0c0-4.4,0-8.5,0-12.4
			C95.7,170.9,91.5,170.9,87.3,170.9z M146.3,163.6c-0.3,0.4-0.5,0.8-0.8,1.2c0.9,0.6,1.7,1.7,2.6,1.8c8.1,0.1,16.3,0.1,24.4,0.1
			c2.3,0,2.5-1.1,1.8-3C164.9,163.6,155.6,163.6,146.3,163.6z M33.5,163.5c-0.3,0.4-0.6,0.7-0.9,1.1c0.8,0.7,1.6,1.9,2.4,1.9
			c6.7,0.2,13.4,0.1,20.1,0c0.7,0,1.5-1,2.2-1.6c-0.8-0.5-1.5-1.4-2.3-1.4C47.8,163.4,40.7,163.5,33.5,163.5z M69.9,106.6
			c-2.1,2.1-4.2,4.2-6.4,6.4c1.7,1.4,3.4,2.9,5.3,4.5c2.1-2.4,4-4.4,5.9-6.6C72.9,109.4,71.4,108,69.9,106.6z M68.5,147.3
			c2.2-2,4.1-3.7,6.2-5.5c-2-1.8-3.8-3.4-5-4.5c-2.1,1.8-3.9,3.3-5.8,5C65.4,143.9,66.8,145.4,68.5,147.3z M74.3,126.8
			c-1.9-1.7-3.6-3.2-5.4-4.9c-1.8,2-3.4,3.8-5.2,5.8c1.9,1.7,3.5,3.2,4.9,4.4C70.6,130.2,72.3,128.7,74.3,126.8z M212.4,164.7
			c-0.3-0.4-0.6-0.8-0.9-1.2c-4,0-8.1-0.1-12.1,0.1c-0.7,0-1.4,1-2.1,1.5c0.8,0.5,1.5,1.4,2.3,1.5c3.4,0.2,6.9,0.2,10.3,0
			C210.8,166.5,211.6,165.3,212.4,164.7z M87.7,163.5c-0.3,0.4-0.5,0.9-0.8,1.3c0.8,0.6,1.6,1.7,2.5,1.8c3,0.2,6,0.2,8.9,0
			c0.7,0,1.4-1.1,2-1.7c-0.7-0.5-1.3-1.3-2-1.3C94.8,163.4,91.2,163.5,87.7,163.5z M117.2,163.6c0.2,3.1,4,4,11.1,2.9
			c0.8-0.1,1.4-1.4,2.7-2.9C125.6,163.6,121.5,163.6,117.2,163.6z M61.9,170.5c0,2.7,0,5,0,7.3c1.4,0,2.5,0,3.8,0c0-2.5,0-4.8,0-7.3
			C64.4,170.5,63.3,170.5,61.9,170.5z M146,179.7c1.3-0.3,3-0.5,3.1-0.9c0.2-2.6,0.3-5.2,0.1-7.8c0-0.3-1.9-0.5-3.1-0.8
			C146,173.5,146,176.2,146,179.7z M61.9,99.3c0,3.8,0,6.7,0,10.4c2-2.1,3.5-3.7,5.2-5.5C65.5,102.7,64,101.3,61.9,99.3z
			 M66.1,155.5c1.9-0.2,3.4-0.3,5.7-0.5c-1.4-1.5-2.3-2.4-3.6-3.9c-1.9,3.3-6,4-6.5,8.2c1.6,0,2.9,0,4.1,0
			C65.9,157.9,66,156.9,66.1,155.5z M239.2,163.8c-3.1,0-6.1,0-9.3,0c0.7,4.9,4.2,2.3,6.3,2.8C237.9,167,240.2,167.1,239.2,163.8z
			 M62,115.7c0,3.3,0,6,0,9.2c1.8-1.9,3.1-3.4,4.7-5C65.1,118.6,63.8,117.3,62,115.7z M61.9,139.3c1.9-1.8,3.4-3.1,5-4.6
			c-1.7-1.6-3.1-2.9-5-4.6C61.9,133.5,61.9,136.1,61.9,139.3z M74.9,154.1c0-3.1,0-5.4,0-8.4c-1.7,1.6-2.9,2.7-4.3,3.9
			C72,151,73.2,152.3,74.9,154.1z M69.4,102.1c1.2-1.3,2.2-2.4,3.6-4c-2.9,0-5.2,0-8.1,0C66.6,99.6,67.9,100.7,69.4,102.1z
			 M65.8,149.7c-1.4-1.7-2.5-3-3.8-4.7c0,2.8,0,5.1,0,8.1C63.6,151.6,64.8,150.6,65.8,149.7z M75,115.1c-1.7,1.9-2.8,3.1-4.1,4.6
			c1.3,1.1,2.5,2.1,4.1,3.4C75,120.3,75,118.3,75,115.1z M74.9,137.8c0-2.6,0-4.4,0-6.3c-1.4,0.9-2.6,1.7-4,2.7
			C72.5,135.6,73.4,136.5,74.9,137.8z M74.8,106.9c0-2.3,0-3.9,0-6.2c-1.3,1.4-2.2,2.4-3.2,3.4C72.7,105.1,73.6,105.8,74.8,106.9z"
			/>
	</g>
</g>
</svg>
